<svg width="24" height="24" viewBox="0 0 24 24" fill="none" xmlns="http://www.w3.org/2000/svg">
<g clip-path="url(#clip0_3110_129)">
<path d="M0 12C0 21.6781 2.32191 24 12 24C21.6781 24 24 21.6781 24 12C24 2.32191 21.6781 0 12 0C2.32191 0 0 2.32191 0 12ZM8.13872 19.5273C5.37356 19.5403 3.82716 16.9817 4.83905 14.4922L8.60334 5.93873C9.52819 3.30895 13.8319 2.59383 15.3973 5.93873L19.1609 14.4922C20.1788 16.9522 18.6379 19.5573 15.8613 19.5273C14.9429 19.5914 13.1231 18.7038 11.9972 18.7741C10.4733 18.7571 9.43453 19.5659 8.13872 19.5273ZM15.666 15.837L12 7.42964L8.28483 15.837C10.5129 14.8533 13.3473 14.794 15.666 15.837Z" fill="currentColor"/>
</g>
<defs>
<clipPath id="clip0_3110_129">
<rect width="24" height="24" fill="white"/>
</clipPath>
</defs>
</svg>
