<svg width="60" height="60" viewBox="0 0 60 60" fill="none" xmlns="http://www.w3.org/2000/svg">
<path d="M0 30C0 54.2 5.8 60 30 60C54.2 60 60 54.2 60 30C60 5.8 54.2 0 30 0C5.8 0 0 5.8 0 30ZM12.1 36.23L21.505 14.8425C23.095 11.245 26.15 9.29 30 9.29C33.85 9.29 36.905 11.2425 38.495 14.8475L47.9 36.2325C48.33 37.2775 48.7 38.615 48.7 39.7775C48.7 45.09 44.97 48.82 39.6575 48.82C37.8425 48.82 36.4075 48.3625 34.95 47.895C33.4575 47.415 31.9425 46.9275 30 46.9275C28.075 46.9275 26.525 47.415 25.01 47.8925C23.535 48.3625 22.09 48.82 20.3425 48.82C15.03 48.82 11.3 45.09 11.3 39.7775C11.3 38.615 11.67 37.2775 12.1 36.2325V36.23ZM30 18.575L20.7125 39.59C23.4675 38.31 26.64 37.695 30 37.695C33.2425 37.695 36.5325 38.31 39.16 39.59L30 18.575Z" fill="white"/>
</svg>
