<svg width="216" height="262" viewBox="0 0 216 262" fill="none" xmlns="http://www.w3.org/2000/svg">
<g clip-path="url(#clip0_935_2259)">
<path d="M175.23 141.74L170.7 141.77C170.12 143.68 168.79 146.72 166.68 150.8C164.59 154.91 162.6 157.98 160.67 160C159.96 160.77 158.74 161.36 157.07 161.8C155.37 162.27 118.23 162.25 117.67 162.23L117.28 151.8C117.25 150.25 117.24 148.42 117.22 146.25L117.18 139.4C117.18 137.85 117.42 136.52 117.95 135.37C118.45 134.22 119.34 133.33 120.58 132.71C121.62 132.19 122.97 131.81 124.65 131.52C126.33 131.26 127.68 131.04 128.67 130.91L128.64 126.38L89.9004 126.6L89.9304 131.13C91.2504 131.22 93.0904 131.39 95.4304 131.68C97.7704 132 99.6304 132.44 101.01 133.07C102.51 133.67 103.51 134.66 104 136.01C104.47 137.36 104.73 138.91 104.74 140.64L104.77 145.5C104.77 147.03 104.77 148.91 104.77 151.1C104.76 153.31 104.59 155.5 104.27 157.64C103.03 158.9 100.9 160.1 97.9004 161.24C94.8804 162.38 91.5504 162.95 87.8804 162.98C82.9704 163.01 78.5804 161.96 74.7004 159.87C70.8204 157.78 67.5704 154.9 64.9804 151.19C62.3904 147.59 60.3804 143.3 59.0004 138.35C57.6204 133.39 56.9304 128.1 56.9004 122.5C56.8604 116.14 57.7804 110.44 58.8604 105.21C63.5004 82.7601 95.6604 82.1501 103.5 81.8501L103.72 120.97C105.65 120.83 108.96 120.76 111.94 120.75C114.23 120.71 116.32 120.73 117.34 120.72L120.78 120.7C123.5 120.68 125.69 120.93 127.35 121.43C129.01 121.9 130.49 122.96 131.8 124.61C132.59 125.6 133.37 127.22 134.12 129.46C134.87 131.7 135.34 133.83 135.5 135.84L140.23 135.81L140.03 100.84L135.3 100.87C135.11 102.68 134.68 104.59 134.06 106.63C133.41 108.67 132.63 110.3 131.72 111.5C130.61 112.96 129.29 113.98 127.82 114.58C126.32 115.2 123.96 115.52 120.75 115.54L117.42 115.56C117.14 105.97 116.9 81.7901 116.9 81.7901C142.36 82.5801 157.27 90.1701 160.54 93.3901C160.95 93.8001 161.31 94.2001 161.59 94.5501C163.67 97.1601 165.34 100.1 166.65 103.41C167.94 106.71 169.05 110.06 169.94 113.44L175.06 113.41L174.33 82.5101L169.34 82.5401L166.79 86.8001C143.74 70.0701 94.1204 73.3101 77.5504 77.4201C69.9504 79.3001 62.9204 82.3401 56.8104 87.2301C55.9004 87.9701 55.0604 88.7201 54.4104 89.4101C50.3604 93.6801 47.2604 98.6901 45.0504 104.45C42.8704 110.24 41.7804 116.48 41.8204 123.2C41.8604 130.2 43.0704 136.5 45.4104 142.14C47.7804 147.78 50.9404 152.57 54.9104 156.49C58.8304 160.36 63.4304 163.37 68.6804 165.45C73.9104 167.53 79.3604 168.57 85.0104 168.54L173.66 168.04L175.22 141.74H175.23Z" fill="url(#paint0_linear_935_2259)"/>
<path d="M191.21 182.5C200.92 159.09 203.29 133.62 198.06 108.82L197.68 107.04C193.62 87.8 194.55 67.7 200.36 48.92L215.52 0L210.85 0.03C207.87 0.05 138.77 0.639999 107.81 18.57C73.68 1.01 7.57 1.17 4.73 1.19L0 1.22L15.98 48.9C22.49 68.32 23.73 89.18 19.56 109.23C14.37 134.22 16.88 159.85 26.84 183.36C36.79 206.86 53.45 226.51 75.01 240.17L109.26 261.87L143.88 239.39C165.13 225.59 181.5 205.92 191.21 182.52V182.5ZM140.15 233.64L109.21 253.73L78.67 234.38C58.29 221.47 42.54 202.9 33.14 180.68C23.73 158.46 21.35 134.23 26.26 110.61C30.67 89.38 29.36 67.28 22.47 46.72L9.52 8.08C25.71 8.39 79.17 10.55 106.26 25.5L108.03 26.48L109.74 25.4C133.89 10.16 189.67 7.45 206.2 6.97L193.84 46.9C187.68 66.79 186.7 88.08 191 108.46L191.37 110.24C196.32 133.68 194.08 157.76 184.89 179.88C175.71 202 160.24 220.59 140.15 233.64Z" fill="#CA9E5A"/>
</g>
<defs>
<linearGradient id="paint0_linear_935_2259" x1="-98.8495" y1="-40.2636" x2="639.573" y2="513.221" gradientUnits="userSpaceOnUse">
<stop stop-color="#DAB967"/>
<stop offset="0.62" stop-color="#BC874D"/>
<stop offset="1" stop-color="#AE6E41"/>
</linearGradient>
<clipPath id="clip0_935_2259">
<rect width="215.52" height="261.86" fill="white"/>
</clipPath>
</defs>
</svg>
