<svg width="25" height="24" viewBox="0 0 25 24" fill="none" xmlns="http://www.w3.org/2000/svg">
<g clip-path="url(#clip0_3110_133)">
<path d="M0.333984 5.58691V18.3439H1.52398V14.2449L1.98398 13.7179L5.13098 18.3439H6.32098L2.66398 12.9699L5.43698 9.83991H5.26698L1.52398 14.0579V5.58791L0.333984 5.58691ZM11.373 9.77191C10.183 9.77191 9.19632 10.1629 8.41298 10.9449C7.64298 11.7282 7.25765 12.8282 7.25698 14.2449C7.25698 15.6629 7.63098 16.7119 8.37898 17.3919C9.12698 18.0719 10.0967 18.4119 11.288 18.4119C12.49 18.4119 13.4767 18.0209 14.248 17.2389C15.03 16.4562 15.421 15.3562 15.421 13.9389C15.421 12.5216 15.047 11.4726 14.299 10.7919C13.551 10.1112 12.5757 9.77125 11.373 9.77191ZM20.269 9.77191C19.2041 9.77689 18.1532 10.0148 17.19 10.4689L17.258 10.5889C17.5193 10.4409 17.9277 10.2932 18.483 10.1459C19.0497 9.98725 19.543 9.90791 19.963 9.90791C20.383 9.90791 20.723 9.96458 20.983 10.0779C21.243 10.1799 21.4247 10.3046 21.528 10.4519C21.6293 10.5992 21.7087 10.7526 21.766 10.9119C21.834 11.0586 21.8567 11.1832 21.834 11.2859C21.841 12.2559 21.834 13.2739 21.834 14.2619C21.5567 14.2377 21.2784 14.2263 21 14.2279C20.694 14.2279 20.3597 14.2449 19.997 14.2789C18.5337 14.3696 17.5867 14.6192 17.156 15.0279C16.9407 15.2319 16.8103 15.4189 16.765 15.5889C16.719 15.7589 16.6963 15.9176 16.697 16.0649C16.697 16.2009 16.7083 16.3372 16.731 16.4739C16.9237 17.7666 17.7343 18.4129 19.163 18.4129C20.3883 18.4129 21.2783 17.9082 21.833 16.8989V17.2559C21.833 17.4372 21.9637 17.6526 22.225 17.9019C22.5077 18.1972 23.035 18.3449 23.807 18.3449H24.334V18.2089H23.807L23.62 18.1749C23.484 18.1629 23.3477 18.0719 23.211 17.9019C23.087 17.7212 23.0247 17.4662 23.024 17.1369V11.4389C23.024 11.0762 22.8767 10.7302 22.582 10.4009C22.084 9.84391 21.018 9.77691 20.269 9.77091V9.77191ZM11.407 9.90791C12.2683 9.90791 12.96 10.2366 13.482 10.8939C14.004 11.5519 14.265 12.5669 14.265 13.9389C14.265 15.2989 13.9817 16.3649 13.415 17.1369C12.847 17.8969 12.1323 18.2769 11.271 18.2769C10.4097 18.2769 9.71798 17.9479 9.19598 17.2899C8.67398 16.6319 8.41298 15.6226 8.41298 14.2619C8.41298 12.8899 8.69632 11.8239 9.26298 11.0639C9.83032 10.2939 10.545 9.90858 11.407 9.90791ZM20.898 14.3639C21.216 14.3639 21.528 14.3752 21.834 14.3979V16.4559C21.8 16.8426 21.539 17.2452 21.051 17.6639C20.6061 18.0602 20.0307 18.2785 19.435 18.2769C18.5283 18.2769 18.024 17.6759 17.922 16.4739C17.9101 16.372 17.9034 16.2695 17.902 16.1669C17.902 15.6682 18.0327 15.2772 18.294 14.9939C18.554 14.7099 19.1153 14.5169 19.978 14.4149C20.292 14.3769 20.618 14.3749 20.898 14.3639Z" fill="currentColor"/>
</g>
<defs>
<clipPath id="clip0_3110_133">
<rect width="24" height="24" fill="white" transform="translate(0.333984)"/>
</clipPath>
</defs>
</svg>
