<svg width="25" height="24" viewBox="0 0 25 24" fill="none" xmlns="http://www.w3.org/2000/svg">
<g clip-path="url(#clip0_3110_148)">
<path d="M8.15881 10.8345L10.5328 4.32353C10.8131 3.56354 10.7898 2.7248 10.4678 1.98153C9.69781 0.182531 7.60981 -0.398469 5.95981 0.264531C4.30981 0.928531 3.37681 2.43453 4.17881 4.30453L6.99881 10.8655C7.21781 11.3755 7.96881 11.3555 8.15881 10.8355M9.83881 11.9325L16.3718 9.15653C18.5418 8.23453 19.0938 5.46653 17.3938 3.86653L17.3258 3.80353C15.6588 2.25653 12.9038 2.80153 11.9558 4.83953L9.02381 11.1345C8.78981 11.6375 9.31881 12.1545 9.83981 11.9325M10.2118 12.8025L16.8578 10.2905C19.0658 9.45553 21.4778 11.0355 21.4468 13.3305L21.4438 13.4205C21.3958 15.6565 19.0508 17.1575 16.8908 16.3675L10.2188 13.9255C10.1022 13.8854 10.001 13.81 9.92912 13.7098C9.85725 13.6095 9.81829 13.4895 9.81763 13.3662C9.81697 13.2428 9.85464 13.1224 9.92544 13.0214C9.99624 12.9204 10.0957 12.8439 10.2118 12.8025ZM9.82681 14.7295L16.2638 17.7055C17.0113 18.0452 17.6053 18.6513 17.9298 19.4055C18.6988 21.2055 17.6468 23.0445 15.9968 23.7055C14.3468 24.3685 12.5868 23.9415 11.7868 22.0705L8.98481 15.5005C8.76781 14.9925 9.31281 14.4925 9.82681 14.7295Z" fill="currentColor"/>
</g>
<defs>
<clipPath id="clip0_3110_148">
<rect width="24" height="24" fill="white" transform="translate(0.666016)"/>
</clipPath>
</defs>
</svg>
