<svg width="25" height="24" viewBox="0 0 25 24" fill="none" xmlns="http://www.w3.org/2000/svg">
<path d="M14.0749 4.23003C13.4746 3.51451 12.9031 2.77525 12.3619 2.01403C12.3589 2.00969 12.3548 2.00616 12.3501 2.00372C12.3454 2.00127 12.3402 2 12.3349 2C12.3296 2 12.3244 2.00127 12.3197 2.00372C12.315 2.00616 12.3109 2.00969 12.3079 2.01403C11.7667 2.77559 11.1953 3.51519 10.5949 4.23103C3.38291 13.418 11.7329 19.616 11.7329 19.616L11.7999 19.663C11.8639 20.622 12.0209 22 12.0209 22H12.6489C12.6489 22 12.8059 20.628 12.8689 19.67L12.9379 19.616C12.9379 19.616 21.2869 13.418 14.0759 4.23103M12.3349 19.482C12.3349 19.482 11.9609 19.162 11.8599 19.002L11.8589 18.986L12.3119 8.98403C12.313 8.97862 12.316 8.97377 12.3203 8.97029C12.3245 8.9668 12.3299 8.9649 12.3354 8.9649C12.3409 8.9649 12.3463 8.9668 12.3506 8.97029C12.3548 8.97377 12.3578 8.97862 12.3589 8.98403L12.8109 18.986V19.003C12.7099 19.163 12.3349 19.482 12.3349 19.482Z" fill="currentColor"/>
</svg>
