<svg width="24" height="24" viewBox="0 0 24 24" fill="none" xmlns="http://www.w3.org/2000/svg">
<path d="M13.7902 1.9532C13.6467 1.9532 13.5102 1.98728 13.3873 2.02824C13.6536 2.20584 13.797 2.43792 13.8721 2.70424C13.8789 2.7384 13.8857 2.76568 13.8926 2.79984C13.8994 2.834 13.9062 2.86128 13.9062 2.89544C13.9267 3.35296 13.7833 3.40752 13.6878 3.68064C13.5375 4.02888 13.5785 4.40448 13.7628 4.70488C13.7764 4.73904 13.797 4.78008 13.8242 4.82096C13.6262 3.50312 14.7256 3.30512 14.9304 2.89536C14.9441 2.53352 14.6505 2.29456 14.4183 2.13072C14.1794 1.99408 13.9745 1.9532 13.7902 1.9532ZM15.4426 2.2468C15.4221 2.36968 15.4357 2.33561 15.429 2.39697C15.4221 2.43793 15.4221 2.49256 15.4152 2.53352C15.4016 2.57448 15.3947 2.61544 15.3811 2.65648L15.3402 2.77936C15.3196 2.82032 15.306 2.85448 15.2855 2.90224L15.2446 2.96368C15.2309 2.97736 15.2241 2.99784 15.2104 3.01152C15.183 3.04568 15.1558 3.08664 15.1353 3.11392C15.1011 3.14808 15.0806 3.18224 15.0397 3.20952V3.21633C15.0055 3.24369 14.9782 3.27096 14.9441 3.29832C14.8348 3.38024 14.7119 3.44169 14.5958 3.52361C14.5617 3.55097 14.5207 3.57144 14.4934 3.5988C14.4593 3.626 14.4251 3.65336 14.3978 3.68064L14.3022 3.77625C14.275 3.81041 14.2476 3.84456 14.2271 3.87864C14.1998 3.9128 14.1725 3.95385 14.152 3.98793C14.1315 4.02889 14.1179 4.06312 14.0974 4.11088C14.0838 4.15184 14.0633 4.18592 14.0564 4.23376C14.0428 4.28152 14.0291 4.32257 14.0223 4.36353C14.0154 4.38401 14.0154 4.41128 14.0086 4.43176C14.0018 4.45224 14.0018 4.47272 13.995 4.4932C13.995 4.53416 13.9882 4.58201 13.9882 4.62297C13.9882 4.65713 13.9882 4.68441 13.995 4.71857C13.995 4.75953 14.0018 4.80048 14.0086 4.84832C14.0154 4.88928 14.0223 4.93024 14.0359 4.9712L14.0769 5.09409C14.0906 5.12145 14.1042 5.14872 14.111 5.16928L12.9162 4.70488C12.7113 4.65024 12.5133 4.59568 12.3153 4.54784C12.206 4.52056 12.0967 4.4932 11.9875 4.47272C11.6734 4.4111 11.3567 4.36327 11.0384 4.32936C11.0248 4.32936 11.0248 4.32248 11.011 4.32248C10.697 4.2884 10.3897 4.27472 10.0824 4.27472C9.85033 4.27472 9.62497 4.28832 9.39961 4.302C9.08553 4.32248 8.76465 4.36352 8.45049 4.41808C8.37537 4.43176 8.29345 4.44545 8.21833 4.45913C8.05449 4.49321 7.90425 4.52736 7.74721 4.56152C7.67209 4.582 7.59017 4.60249 7.51505 4.62297C7.43993 4.65713 7.36481 4.69129 7.28977 4.71857C7.23417 4.74647 7.17719 4.77155 7.11905 4.79368C7.10537 4.80048 7.09857 4.80048 7.09169 4.80728C7.04317 4.83092 6.99536 4.856 6.94833 4.88248C6.93473 4.88928 6.92105 4.89608 6.91417 4.89608C6.85953 4.92336 6.79817 4.95072 6.75033 4.978C6.71617 4.99168 6.67513 5.01216 6.64793 5.03264C6.63425 5.04624 6.61377 5.05312 6.60009 5.06C6.55233 5.0872 6.50449 5.11456 6.46353 5.13504C6.41569 5.1624 6.37473 5.18968 6.34065 5.21024C6.30649 5.23744 6.26545 5.258 6.23825 5.28528C6.23137 5.29208 6.22457 5.29209 6.22457 5.29889C6.18987 5.32013 6.15778 5.34536 6.12897 5.37408L6.11529 5.38769C6.08801 5.40817 6.06065 5.42872 6.04017 5.4492C6.02657 5.456 6.01969 5.4628 6.00601 5.46968C5.97873 5.49016 5.95145 5.51745 5.93089 5.53793C5.92409 5.55153 5.91729 5.55152 5.91041 5.5584C5.87633 5.59256 5.84897 5.61304 5.81481 5.6472C5.80801 5.6472 5.80801 5.654 5.80121 5.6608C5.76705 5.68816 5.73977 5.71544 5.70561 5.7496C5.69881 5.7564 5.69881 5.76321 5.69201 5.76321C5.66465 5.79057 5.63729 5.81792 5.61681 5.8452C5.60321 5.8588 5.58953 5.86568 5.58273 5.87936C5.55537 5.91352 5.52809 5.9408 5.49393 5.97496C5.48713 5.98856 5.48033 5.98857 5.47345 6.00225C5.43249 6.04321 5.39833 6.08416 5.35057 6.12512L5.33689 6.13881C5.25497 6.22761 5.16617 6.3164 5.07057 6.39144C4.97497 6.47336 4.87937 6.55536 4.77697 6.6236C4.67457 6.69872 4.57217 6.76016 4.46289 6.8216C4.36049 6.87624 4.25121 6.93088 4.13513 6.97864C4.02401 7.02677 3.90997 7.06784 3.79369 7.10161C3.57521 7.14937 3.34985 7.23816 3.15873 7.25184C3.11769 7.25184 3.06993 7.26545 3.02897 7.26545C2.98113 7.27905 2.94017 7.28592 2.89921 7.2996C2.85825 7.31328 2.81729 7.33376 2.77633 7.34736C2.73537 7.36096 2.69441 7.38152 2.65345 7.402C2.61929 7.42936 2.57825 7.44984 2.53737 7.4772C2.50321 7.5044 2.46217 7.53177 2.43497 7.56593C2.40073 7.59321 2.35977 7.62736 2.33249 7.66152C2.29833 7.6956 2.27105 7.72976 2.24369 7.76392C2.21641 7.80488 2.18913 7.83905 2.16865 7.88681C2.14129 7.92097 2.11401 7.962 2.09345 8.00976C2.07289 8.05752 2.05257 8.09856 2.03889 8.14632C2.02529 8.18728 2.00473 8.23512 1.99105 8.28288C1.97745 8.32384 1.97057 8.36481 1.96377 8.40577C1.96377 8.41257 1.95697 8.41937 1.95697 8.41937C1.94329 8.46721 1.94329 8.52865 1.94329 8.56281C1.93649 8.59697 1.92969 8.63112 1.92969 8.6652C1.92969 8.68568 1.92969 8.71305 1.93649 8.73353C1.94329 8.76769 1.95009 8.80176 1.95697 8.82912C1.97057 8.86328 1.97745 8.89057 1.99105 8.92473V8.93152C2.00473 8.96568 2.02521 8.99297 2.04569 9.02713C2.06617 9.06129 2.08665 9.08856 2.11401 9.12272C2.14129 9.15 2.16865 9.17736 2.20281 9.20464C2.23689 9.2388 2.26417 9.25928 2.29833 9.28656C2.42129 9.39584 2.45537 9.43 2.61241 9.51872L2.69441 9.55968C2.70121 9.55968 2.70801 9.56656 2.70801 9.56656C2.70801 9.58016 2.70801 9.58017 2.71489 9.59385C2.72169 9.63481 2.72849 9.67577 2.74217 9.71681C2.75582 9.76459 2.76947 9.80555 2.78313 9.83968C2.80361 9.89088 2.81049 9.90112 2.82409 9.93528C2.83097 9.94888 2.83777 9.95576 2.83777 9.96256C2.85825 10.0035 2.87873 10.0378 2.89921 10.0786C2.92657 10.1128 2.95385 10.1538 2.97441 10.1879C3.00161 10.2221 3.02897 10.2562 3.06313 10.2835C3.09721 10.3177 3.12457 10.3382 3.15873 10.3723C3.15873 10.3723 3.16553 10.3791 3.17233 10.3791C3.20649 10.4064 3.23377 10.4338 3.26793 10.4542C3.30209 10.4815 3.34313 10.502 3.38401 10.5225C3.41817 10.543 3.45921 10.5634 3.50697 10.5771C3.54105 10.5907 3.57521 10.6044 3.60937 10.6113C3.61617 10.6181 3.62297 10.6181 3.62985 10.6249C3.65033 10.6318 3.67761 10.6386 3.69809 10.6386C3.68449 10.9186 3.67761 11.1848 3.71857 11.2804C3.76641 11.3828 3.99177 11.0687 4.22385 10.7C4.18977 11.0619 4.16929 11.4784 4.22385 11.6082C4.27841 11.7379 4.59265 11.335 4.86577 10.8844C8.55297 10.0308 11.9192 12.5778 12.2742 16.183C12.206 15.6231 11.5163 15.309 11.1954 15.3842C11.0384 15.7666 10.7721 16.265 10.3487 16.5722C10.3829 16.2308 10.3692 15.8758 10.2941 15.5343C10.1781 16.0123 9.95273 16.463 9.65225 16.8454C9.16065 16.8795 8.66217 16.6406 8.40265 16.2854C8.38225 16.2718 8.37545 16.2377 8.36177 16.2172C8.34817 16.183 8.32761 16.142 8.32081 16.1079C8.30713 16.0738 8.29345 16.0328 8.28665 15.9986C8.27985 15.9645 8.27985 15.9236 8.27985 15.8826V15.8074C8.28665 15.7734 8.29345 15.7324 8.30713 15.6982C8.32081 15.6641 8.32761 15.6231 8.34129 15.589C8.36177 15.5549 8.37537 15.5138 8.40273 15.4798C8.49153 15.2271 8.49153 15.029 8.32761 14.9062C8.29345 14.8857 8.26617 14.872 8.23201 14.8515C8.21153 14.8447 8.18425 14.8379 8.16377 14.831C8.15009 14.8242 8.13641 14.8174 8.12273 14.8174C8.08865 14.8038 8.04769 14.7969 8.01353 14.7901C7.97937 14.7765 7.93841 14.7765 7.90425 14.7765C7.87009 14.7696 7.82913 14.7628 7.78825 14.7628C7.76089 14.7628 7.73353 14.7696 7.71305 14.7696C7.67209 14.7696 7.63793 14.7764 7.59705 14.7832C7.56289 14.7901 7.52185 14.7969 7.48777 14.8038C7.45361 14.8174 7.41257 14.8242 7.37849 14.8379C7.34441 14.8516 7.31025 14.872 7.27609 14.8857C7.24193 14.8994 7.21465 14.9198 7.18049 14.9403C5.96505 15.7323 6.68889 17.5828 7.52185 18.1154C7.20777 18.17 6.89369 18.2383 6.80497 18.3066L6.79129 18.3202C7.01508 18.4567 7.25041 18.5732 7.49457 18.6685C7.82913 18.7778 8.18417 18.8733 8.33441 18.9211V18.9279C8.76465 19.0167 9.20161 19.0509 9.64545 19.0235C11.9466 18.8597 13.8379 17.1117 14.1794 14.7969C14.193 14.8447 14.1998 14.8857 14.2134 14.9335C14.2271 15.029 14.2476 15.1247 14.2613 15.2271V15.2339C14.2749 15.2817 14.2749 15.3295 14.2818 15.3705V15.391C14.2886 15.4388 14.2954 15.4866 14.2954 15.5275C14.3022 15.5822 14.309 15.6436 14.309 15.6982V15.7802C14.309 15.8075 14.3159 15.8348 14.3159 15.8621C14.3159 15.8962 14.309 15.9236 14.309 15.9577V16.0329C14.309 16.067 14.3022 16.1011 14.3022 16.1353C14.3022 16.1558 14.3022 16.1762 14.2954 16.2035C14.2954 16.2377 14.2886 16.2786 14.2886 16.3196C14.2818 16.3332 14.2818 16.3538 14.2818 16.3674C14.275 16.4084 14.2682 16.4426 14.2682 16.4903C14.2682 16.5039 14.2682 16.5245 14.2613 16.5381C14.2545 16.5927 14.2477 16.6337 14.2408 16.6883V16.7019C14.2272 16.7498 14.2203 16.7976 14.2066 16.8454V16.859C14.193 16.9068 14.1862 16.9546 14.1725 17.0024C14.1725 17.0093 14.1657 17.016 14.1657 17.0229C14.1521 17.0707 14.1452 17.1185 14.1315 17.1663V17.1799C14.1179 17.2346 14.0974 17.2755 14.0906 17.3234C14.0838 17.3302 14.0838 17.337 14.0838 17.337C14.0702 17.3916 14.0496 17.4394 14.0359 17.4941C14.0154 17.5486 14.0018 17.5896 13.9813 17.6442C13.9607 17.6989 13.9472 17.7466 13.9267 17.7945C13.9062 17.8491 13.8858 17.8901 13.8653 17.9447H13.8584C13.8379 17.9925 13.8174 18.0403 13.7902 18.0881C13.7833 18.1017 13.7765 18.1154 13.7765 18.1222C13.7697 18.129 13.7697 18.1358 13.7629 18.1358C13.4214 18.8187 12.9229 19.4127 12.3016 19.8838C12.2606 19.9112 12.2197 19.9386 12.1787 19.9726C12.165 19.9863 12.1514 19.9863 12.1446 20C12.1085 20.0289 12.0696 20.0541 12.0285 20.0751L12.0421 20.1092H12.049C12.1241 20.0956 12.1923 20.0887 12.2674 20.0751H12.2742C12.4109 20.0546 12.5474 20.0273 12.6771 19.9999C12.7113 19.9931 12.7523 19.9863 12.7932 19.9727C12.8206 19.9658 12.841 19.959 12.8684 19.959C12.9025 19.9522 12.9434 19.9454 12.9776 19.9386C13.0118 19.9249 13.039 19.9249 13.0732 19.9112C13.5921 19.7883 14.0974 19.6176 14.5822 19.4128C13.756 20.5394 12.6498 21.4544 11.3525 22.0484C11.9533 22.0076 12.5482 21.9046 13.1278 21.7412C15.2241 21.1198 16.9857 19.7132 18.0441 17.815C17.8324 19.0167 17.3545 20.1638 16.6443 21.1608C17.1496 20.8262 17.6139 20.4438 18.0304 20.0068C19.198 18.7914 19.9628 17.2414 20.2222 15.5822C20.3998 16.4015 20.4544 17.255 20.3725 18.0881C24.128 12.8509 20.6866 7.41568 19.2458 5.98856C19.239 5.97496 19.2322 5.97497 19.2322 5.96129C19.2254 5.96809 19.2254 5.96808 19.2254 5.97488C19.2254 5.96808 19.2254 5.96809 19.2185 5.96129C19.2185 6.02273 19.2117 6.08417 19.2049 6.14561C19.1913 6.26857 19.1707 6.37776 19.1502 6.49384C19.123 6.60992 19.0956 6.726 19.0614 6.83528C19.0273 6.94456 18.9864 7.06064 18.9386 7.16984C18.8908 7.27224 18.843 7.38152 18.7815 7.48392C18.7241 7.58426 18.6626 7.68221 18.5971 7.77752C18.5289 7.8732 18.4538 7.96872 18.3855 8.05752C18.3103 8.15312 18.2216 8.23513 18.1397 8.31697C18.085 8.36481 18.0441 8.40576 17.9894 8.44672C17.9485 8.48088 17.9143 8.51504 17.8666 8.54912C17.771 8.62432 17.6822 8.69256 17.573 8.75392C17.4774 8.81552 17.3682 8.87688 17.2657 8.93152C17.1564 8.98616 17.0472 9.02713 16.9379 9.07489C16.8286 9.11593 16.7126 9.15008 16.5965 9.18416C16.4804 9.21824 16.3643 9.2388 16.2482 9.25928C16.1307 9.27923 16.0122 9.2929 15.8932 9.30025C15.8113 9.30705 15.7294 9.31385 15.6406 9.31385C15.5177 9.31385 15.4016 9.30024 15.2855 9.29344C15.1626 9.27976 15.0465 9.26608 14.9304 9.2388C14.8075 9.21832 14.6982 9.18416 14.5822 9.15H14.5754C14.6914 9.1364 14.8075 9.12953 14.9168 9.10905C15.0397 9.08857 15.149 9.06128 15.265 9.03392C15.381 8.99984 15.4972 8.96569 15.6064 8.92473C15.7225 8.88377 15.8318 8.82913 15.9342 8.78129C16.0434 8.72673 16.139 8.67208 16.2482 8.61064C16.3438 8.54232 16.4463 8.47409 16.5418 8.40577C16.6374 8.33065 16.7262 8.25552 16.8082 8.1736C16.897 8.09848 16.9721 8.00977 17.054 7.92097C17.1291 7.82537 17.2042 7.73657 17.2725 7.64097C17.2861 7.62737 17.293 7.60688 17.3066 7.5864C17.3607 7.5046 17.4108 7.42029 17.4569 7.33376C17.5114 7.23136 17.5661 7.12896 17.6139 7.01968C17.6618 6.9104 17.7027 6.80112 17.7368 6.68504C17.771 6.57584 17.7982 6.45976 17.8256 6.34368C17.8461 6.22072 17.8666 6.11153 17.8802 5.99545C17.8938 5.87249 17.9007 5.7564 17.9007 5.64032C17.9007 5.5584 17.8938 5.47649 17.887 5.38769C17.8734 5.26481 17.8597 5.15552 17.8461 5.03944C17.8256 4.91656 17.7982 4.80729 17.7709 4.69129C17.7368 4.58201 17.6958 4.46592 17.6549 4.35664C17.6139 4.24736 17.5593 4.13817 17.5114 4.03577C17.4569 3.93337 17.3954 3.83097 17.3339 3.72849L17.1291 3.44168C17.0539 3.35288 16.9721 3.26408 16.8901 3.17536C16.8491 3.1344 16.8013 3.08657 16.7535 3.04569C16.5214 2.86129 16.2756 2.69056 16.0298 2.53352C15.9956 2.51304 15.9615 2.49945 15.9274 2.47889C15.7634 2.35601 15.6064 2.30144 15.4426 2.2468Z" fill="currentColor"/>
</svg>
