<svg width="25" height="24" viewBox="0 0 25 24" fill="none" xmlns="http://www.w3.org/2000/svg">
<path d="M12.334 22C6.81098 22 2.33398 17.523 2.33398 12C2.33398 6.477 6.81098 2 12.334 2C17.857 2 22.334 6.477 22.334 12C22.334 17.523 17.857 22 12.334 22Z" stroke="currentColor" stroke-width="1.5" stroke-linecap="round" stroke-linejoin="round"/>
<path d="M12.334 22C10.124 22 8.33398 17.523 8.33398 12C8.33398 6.477 10.124 2 12.334 2C14.544 2 16.334 6.477 16.334 12C16.334 17.523 14.544 22 12.334 22Z" stroke="currentColor" stroke-width="1.5" stroke-linecap="round" stroke-linejoin="round"/>
<path d="M9.33398 21C6.33398 20 5.33398 15.611 5.33398 12.5C5.33398 9.389 6.83398 5.5 10.334 3M15.334 3C18.334 4 19.334 8.389 19.334 11.5C19.334 14.611 17.834 18.5 14.334 21" stroke="currentColor" stroke-width="1.5" stroke-linecap="round" stroke-linejoin="round"/>
</svg>
