<svg width="60" height="60" viewBox="0 0 60 60" fill="none" xmlns="http://www.w3.org/2000/svg">
<g clip-path="url(#clip0_1110_2872)">
<path d="M45.9375 0H14.0625C6.296 0 0 6.296 0 14.0625V45.9375C0 53.704 6.296 60 14.0625 60H45.9375C53.704 60 60 53.704 60 45.9375V14.0625C60 6.296 53.704 0 45.9375 0Z" fill="black"/>
<path d="M39.6237 20.7685L27.7784 32.614L24.4378 29.2737C36.0869 17.6248 37.238 18.6354 39.6237 20.7685Z" fill="#EEEEEE"/>
<path d="M27.7784 32.8946C27.694 32.8946 27.638 32.8667 27.5817 32.8104L24.2133 29.4701C24.1867 29.4448 24.1655 29.4143 24.151 29.3806C24.1366 29.3468 24.1291 29.3104 24.1291 29.2737C24.1291 29.237 24.1366 29.2006 24.151 29.1669C24.1655 29.1331 24.1867 29.1026 24.2133 29.0773C36.0588 17.2315 37.2938 18.3544 39.7922 20.6C39.8484 20.6562 39.8763 20.7125 39.8763 20.7966C39.8763 20.881 39.8484 20.937 39.7922 20.9928L27.9466 32.8104C27.9188 32.8667 27.8344 32.8946 27.7784 32.8946ZM24.8309 29.2737L27.7784 32.221L39.2027 20.7966C37.1257 18.9439 35.722 18.3825 24.8309 29.2737Z" fill="black"/>
<path d="M31.1747 36.0105L27.9467 32.7824L39.7922 20.9371C42.9642 24.1368 38.2202 29.3299 31.1747 36.0105Z" fill="#EEEEEE"/>
<path d="M31.1747 36.2914C31.0903 36.2914 31.0345 36.2632 30.9783 36.207L27.7502 32.9789C27.694 32.9229 27.694 32.8667 27.694 32.7825C27.694 32.6982 27.7221 32.6422 27.7783 32.5859L39.6237 20.7406C39.649 20.714 39.6795 20.6928 39.7133 20.6783C39.7471 20.6638 39.7834 20.6564 39.8202 20.6564C39.8569 20.6564 39.8933 20.6638 39.9271 20.6783C39.9609 20.6928 39.9914 20.714 40.0167 20.7406C40.3751 21.0722 40.6583 21.4768 40.8471 21.9271C41.036 22.3774 41.1261 22.863 41.1115 23.3511C41.0555 26.4666 37.5185 30.4245 31.3992 36.207C31.3151 36.2632 31.2307 36.2914 31.1747 36.2914ZM28.3397 32.7825C30.1359 34.6069 30.8941 35.337 31.1747 35.6175C35.8905 31.1264 40.4658 26.5229 40.4939 23.3511C40.522 22.6212 40.2415 21.8914 39.764 21.3298L28.3397 32.7825Z" fill="black"/>
<path d="M24.4941 29.3578L26.88 31.7437C26.936 31.8 26.936 31.856 26.88 31.9123C26.8519 31.9404 26.8519 31.9404 26.824 31.9404L21.8834 33.007C21.6309 33.0352 21.4064 32.8666 21.3502 32.614C21.322 32.4736 21.3783 32.3334 21.4626 32.2491L24.3255 29.3859C24.3818 29.3297 24.4659 29.3016 24.4941 29.3578Z" fill="#EEEEEE"/>
<path d="M21.7992 33.2878C21.3783 33.2878 21.0694 32.9507 21.0694 32.5296C21.0694 32.3334 21.1538 32.1368 21.2942 31.9964L24.1571 29.1332C24.3256 28.9929 24.5503 28.9929 24.7186 29.1332L27.1046 31.5192C27.2728 31.6596 27.2728 31.9122 27.1046 32.0805C27.0483 32.1368 26.9923 32.1649 26.9079 32.193L21.9678 33.2597C21.9115 33.2597 21.8553 33.2878 21.7992 33.2878ZM24.4099 29.6665L21.6591 32.4173C21.6028 32.4736 21.5747 32.5577 21.631 32.6418C21.6591 32.7262 21.743 32.7543 21.8274 32.7262L26.4588 31.7156L24.4099 29.6665Z" fill="black"/>
<path d="M45.8834 14.2003C44.0869 12.46 41.1956 12.516 39.4552 14.3406C37.7149 16.165 37.7712 19.0281 39.5956 20.7686C40.3158 21.4645 41.2461 21.9025 42.2414 22.0142C43.2367 22.1259 44.2409 21.9051 45.0975 21.3862L41.8974 18.186L45.8834 14.2003Z" fill="#EEEEEE"/>
<path d="M42.7395 22.3125C40.073 22.3125 37.9116 20.1511 37.9116 17.4844C37.9116 14.8177 40.073 12.6562 42.7395 12.6562C43.9746 12.6562 45.1816 13.1334 46.0798 14.0037C46.136 14.0599 46.1641 14.1162 46.1641 14.2001C46.1641 14.2845 46.136 14.3407 46.0798 14.3967L42.2904 18.1861L45.2658 21.1615C45.3783 21.274 45.3783 21.4423 45.2658 21.5545L45.2098 21.6108C44.4799 22.0596 43.6097 22.3125 42.7395 22.3125ZM42.7395 13.2459C40.3816 13.2459 38.4729 15.1545 38.501 17.5125C38.501 19.8703 40.4095 21.7791 42.7676 21.7512C43.4133 21.7512 44.0587 21.6105 44.6482 21.3019L41.7009 18.3827C41.6447 18.3265 41.6168 18.2702 41.6168 18.1861C41.6168 18.1017 41.6447 18.0457 41.7009 17.9897L45.4624 14.2282C44.7045 13.5827 43.7501 13.2459 42.7395 13.2459Z" fill="black"/>
<path d="M45.9675 14.2844L45.9115 14.2281L41.8973 18.186L45.0694 21.3581C45.3783 21.1614 45.6867 20.9371 45.9396 20.6845C46.3649 20.2679 46.7032 19.7711 46.9351 19.2227C47.1669 18.6744 47.2877 18.0856 47.2902 17.4903C47.2928 16.895 47.1773 16.3051 46.9502 15.7548C46.7231 15.2044 46.3891 14.7047 45.9675 14.2844Z" fill="#EEEEEE"/>
<path d="M45.0975 21.6668C45.0131 21.6668 44.9571 21.6387 44.9009 21.5824L41.701 18.3825C41.6447 18.3263 41.6168 18.2703 41.6168 18.1861C41.6168 18.1017 41.6447 18.0455 41.701 17.9895L45.6867 14.0039C45.7992 13.8914 45.9675 13.8914 46.0798 14.0039L46.1642 14.0602C48.0448 15.9406 48.0448 18.9722 46.1923 20.8812C45.9115 21.1617 45.6026 21.4144 45.2658 21.6108C45.1817 21.6389 45.1256 21.6668 45.0975 21.6668ZM42.2904 18.1864L45.1256 21.0214C45.3502 20.8812 45.5747 20.6846 45.743 20.516C47.3431 18.916 47.4272 16.3057 45.8834 14.6215L42.2904 18.1864Z" fill="black"/>
<path d="M40.1011 21.2735C39.7771 20.95 39.3379 20.7683 38.88 20.7683C38.4221 20.7683 37.9829 20.95 37.6589 21.2735L27.0764 31.856L28.845 33.6244L40.0449 23.8001C40.7747 23.1823 40.8307 22.0875 40.2134 21.3579C40.1571 21.3298 40.129 21.3017 40.1011 21.2735Z" fill="#EEEEEE"/>
<path d="M28.8169 33.9051C28.7327 33.9051 28.6765 33.877 28.6202 33.821L26.8519 32.0526C26.8252 32.0273 26.8041 31.9968 26.7896 31.963C26.7751 31.9292 26.7676 31.8929 26.7676 31.8561C26.7676 31.8194 26.7751 31.783 26.7896 31.7492C26.8041 31.7154 26.8252 31.6849 26.8519 31.6596L37.4341 21.0771C37.6199 20.8903 37.8408 20.7421 38.0841 20.6409C38.3274 20.5397 38.5883 20.4877 38.8517 20.4877C39.1152 20.4877 39.3761 20.5397 39.6194 20.6409C39.8627 20.7421 40.0836 20.8903 40.2694 21.0771C40.4562 21.2629 40.6045 21.4838 40.7056 21.7271C40.8068 21.9703 40.8589 22.2312 40.8589 22.4947C40.8589 22.7582 40.8068 23.0191 40.7056 23.2624C40.6045 23.5057 40.4562 23.7265 40.2694 23.9123L40.1852 23.9965L28.9851 33.821C28.9572 33.877 28.901 33.9051 28.8169 33.9051ZM27.4694 31.856L28.845 33.2315L39.8484 23.5753C40.4658 23.07 40.522 22.1437 40.0167 21.5264C39.5114 20.9088 38.5851 20.8528 37.9676 21.3576C37.9397 21.3858 37.9115 21.4139 37.8553 21.442L27.4694 31.856Z" fill="black"/>
<path d="M18.9642 43.8984C18.8517 43.9544 18.7957 44.0667 18.8236 44.1789L19.301 46.2002C19.4135 46.4807 19.2447 46.8178 18.9361 46.9019C18.7115 46.9861 18.4591 46.9019 18.3187 46.7336L15.2308 43.6739L25.308 33.5967L28.7887 33.6527L31.1465 36.0107C30.5852 36.4879 27.1886 39.772 18.9642 43.8984Z" fill="#EEEEEE"/>
<path d="M18.7397 47.1822C18.5152 47.1822 18.2906 47.0981 18.1503 46.9298L15.0905 43.87C15.0342 43.814 15.0063 43.7578 15.0063 43.6736C15.0063 43.5895 15.0345 43.5333 15.0907 43.477L25.1677 33.4C25.2239 33.3438 25.3081 33.3157 25.3643 33.3157L28.845 33.3719C28.9292 33.3719 28.9852 33.4 29.0412 33.4561L31.3992 35.8139C31.4555 35.8701 31.4834 35.9543 31.4834 36.0384C31.4834 36.1228 31.4555 36.1788 31.3711 36.235L31.1747 36.4036C28.1993 39.0138 24.1571 41.6245 19.1325 44.1227L19.6099 46.1156C19.6941 46.4805 19.5256 46.8736 19.1888 47.07C19.0203 47.1541 18.8801 47.1822 18.7397 47.1822ZM15.6518 43.6736L18.5433 46.5368C18.6272 46.6772 18.7957 46.7332 18.9361 46.649C19.0765 46.5649 19.1328 46.3964 19.0486 46.256L18.5714 44.235C18.5152 43.9823 18.6272 43.7578 18.852 43.6455C23.8203 41.1473 27.8344 38.565 30.7817 36.0105L28.7046 33.9333L25.4766 33.877L15.6518 43.6736Z" fill="black"/>
<path d="M12.8449 46.0878L15.259 43.6737L18.852 47.2667L13.1257 46.8739C12.8731 46.8457 12.7045 46.6212 12.7327 46.3683C12.7327 46.256 12.7606 46.1438 12.8449 46.0878Z" fill="#EEEEEE"/>
<path d="M18.852 47.5193L13.0976 47.1262C12.6764 47.0981 12.3956 46.7334 12.4238 46.3123C12.4519 46.1437 12.5081 45.9755 12.6485 45.8632L15.0626 43.4491C15.0879 43.4225 15.1184 43.4013 15.1521 43.3869C15.1859 43.3724 15.2223 43.3649 15.259 43.3649C15.2957 43.3649 15.3321 43.3724 15.3658 43.3869C15.3996 43.4013 15.4301 43.4225 15.4554 43.4491L19.0484 47.0421C19.1327 47.1262 19.1609 47.2385 19.1046 47.351C19.0484 47.4633 18.964 47.5193 18.852 47.5193ZM15.259 44.0667L13.0416 46.2841C12.9572 46.3404 12.9572 46.4808 13.0416 46.5368C13.0697 46.5649 13.0978 46.593 13.1538 46.593L18.1221 46.9298L15.259 44.0667ZM24.3255 34.8879C24.157 34.8879 24.0448 34.7475 24.0448 34.6071C24.0448 34.523 24.0729 34.4669 24.1291 34.4107L26.8519 31.688C26.8772 31.6613 26.9077 31.6401 26.9415 31.6256C26.9753 31.6111 27.0116 31.6036 27.0484 31.6036C27.0852 31.6036 27.1215 31.6111 27.1553 31.6256C27.1891 31.6401 27.2196 31.6613 27.2449 31.688L29.0133 33.4563C29.0974 33.5405 29.1255 33.6246 29.0974 33.7371C29.0693 33.8212 28.9852 33.9054 28.8731 33.9335L24.3818 34.8879H24.3255ZM27.0483 32.2774L25.1958 34.1301L28.2272 33.4842L27.0483 32.2774Z" fill="black"/>
<path d="M28.7887 33.6525L25.7011 34.3263C25.4765 34.3825 25.2518 34.2422 25.1958 34.0176C25.1676 33.8772 25.1958 33.7368 25.308 33.6246L27.0201 31.9122L28.7887 33.6525Z" fill="#EEEEEE"/>
<path d="M25.6449 34.6071C25.5525 34.608 25.4608 34.5905 25.3752 34.5556C25.2897 34.5207 25.2119 34.469 25.1466 34.4037C25.0812 34.3383 25.0296 34.2606 24.9946 34.175C24.9597 34.0895 24.9422 33.9978 24.9432 33.9054C24.9432 33.709 25.0273 33.5405 25.1396 33.4003L26.8519 31.688C26.8772 31.6613 26.9077 31.6401 26.9415 31.6256C26.9753 31.6111 27.0117 31.6036 27.0484 31.6036C27.0852 31.6036 27.1216 31.6111 27.1553 31.6256C27.1891 31.6401 27.2196 31.6613 27.2449 31.688L29.0133 33.4563C29.0974 33.5405 29.1256 33.6246 29.0974 33.7371C29.0693 33.8212 28.9852 33.9054 28.8732 33.9335L25.7853 34.6071H25.6449ZM27.0483 32.2774L25.5326 33.7931C25.4766 33.8494 25.4766 33.9054 25.5045 33.9616C25.5326 34.0176 25.5889 34.0458 25.673 34.0458L28.2553 33.4842L27.0483 32.2774ZM45.9956 16.9788C45.9396 16.8105 45.743 16.7264 45.5745 16.7826C45.4062 16.8384 45.3221 17.0351 45.3783 17.2036C45.3783 17.2317 45.4062 17.2598 45.4062 17.2877C45.5745 17.6248 45.5187 18.0457 45.2939 18.3544C45.1817 18.495 45.2098 18.6914 45.3221 18.8037C45.4624 18.9157 45.6589 18.888 45.7711 18.7474C46.1923 18.214 46.2764 17.5404 45.9956 16.9788Z" fill="black"/>
</g>
<defs>
<clipPath id="clip0_1110_2872">
<rect width="60" height="60" fill="white"/>
</clipPath>
</defs>
</svg>
