<svg width="25" height="24" viewBox="0 0 25 24" fill="none" xmlns="http://www.w3.org/2000/svg">
<path d="M12.334 10.1098C13.364 10.1098 14.204 10.9498 14.204 11.9998C14.204 12.9998 13.364 13.8498 12.334 13.8498C11.304 13.8498 10.464 12.9998 10.464 11.9998C10.464 10.9498 11.304 10.1098 12.334 10.1098ZM7.70398 19.9998C8.33398 20.3798 9.71398 19.7998 11.304 18.2998C10.784 17.7098 10.274 17.0698 9.79398 16.3998C8.98821 16.3222 8.18709 16.202 7.39398 16.0398C6.88398 18.1798 7.07398 19.6498 7.70398 19.9998ZM8.41398 14.2598L8.12398 13.7498C8.01398 14.0398 7.90398 14.3298 7.83398 14.6098C8.10398 14.6698 8.40398 14.7198 8.71398 14.7698L8.41398 14.2598ZM14.954 13.4998L15.764 11.9998L14.954 10.4998C14.654 9.96985 14.334 9.49985 14.044 9.02985C13.504 8.99985 12.934 8.99985 12.334 8.99985C11.734 8.99985 11.164 8.99985 10.624 9.02985C10.334 9.49985 10.014 9.96985 9.71398 10.4998L8.90398 11.9998L9.71398 13.4998C10.014 14.0298 10.334 14.4998 10.624 14.9698C11.164 14.9998 11.734 14.9998 12.334 14.9998C12.934 14.9998 13.504 14.9998 14.044 14.9698C14.334 14.4998 14.654 14.0298 14.954 13.4998ZM12.334 6.77985C12.144 6.99985 11.944 7.22985 11.744 7.49985H12.924C12.724 7.22985 12.524 6.99985 12.334 6.77985ZM12.334 17.2198C12.524 16.9998 12.724 16.7698 12.924 16.4998H11.744C11.944 16.7698 12.144 16.9998 12.334 17.2198ZM16.954 3.99985C16.334 3.61985 14.954 4.19985 13.364 5.69985C13.884 6.28985 14.394 6.92985 14.874 7.59985C15.694 7.67985 16.504 7.79985 17.274 7.95985C17.784 5.81985 17.594 4.34985 16.954 3.99985ZM16.254 9.73985L16.544 10.2498C16.654 9.95985 16.764 9.66985 16.834 9.38985C16.564 9.32985 16.264 9.27985 15.954 9.22985L16.254 9.73985ZM17.704 2.68985C19.174 3.52985 19.334 5.73985 18.714 8.31985C21.254 9.06985 23.084 10.3098 23.084 11.9998C23.084 13.6898 21.254 14.9298 18.714 15.6798C19.334 18.2598 19.174 20.4698 17.704 21.3098C16.244 22.1498 14.254 21.1898 12.334 19.3598C10.414 21.1898 8.42398 22.1498 6.95398 21.3098C5.49398 20.4698 5.33398 18.2598 5.95398 15.6798C3.41398 14.9298 1.58398 13.6898 1.58398 11.9998C1.58398 10.3098 3.41398 9.06985 5.95398 8.31985C5.33398 5.73985 5.49398 3.52985 6.95398 2.68985C8.42398 1.84985 10.414 2.80985 12.334 4.63985C14.254 2.80985 16.244 1.84985 17.704 2.68985ZM17.414 11.9998C17.754 12.7498 18.054 13.4998 18.304 14.2598C20.404 13.6298 21.584 12.7298 21.584 11.9998C21.584 11.2698 20.404 10.3698 18.304 9.73985C18.054 10.4998 17.754 11.2498 17.414 11.9998ZM7.25398 11.9998C6.91398 11.2498 6.61398 10.4998 6.36398 9.73985C4.26398 10.3698 3.08398 11.2698 3.08398 11.9998C3.08398 12.7298 4.26398 13.6298 6.36398 14.2598C6.61398 13.4998 6.91398 12.7498 7.25398 11.9998ZM16.254 14.2598L15.954 14.7698C16.264 14.7198 16.564 14.6698 16.834 14.6098C16.764 14.3298 16.654 14.0398 16.544 13.7498L16.254 14.2598ZM13.364 18.2998C14.954 19.7998 16.334 20.3798 16.954 19.9998C17.594 19.6498 17.784 18.1798 17.274 16.0398C16.504 16.1998 15.694 16.3198 14.874 16.3998C14.394 17.0698 13.884 17.7098 13.364 18.2998ZM8.41398 9.73985L8.71398 9.22985C8.40398 9.27985 8.10398 9.32985 7.83398 9.38985C7.90398 9.66985 8.01398 9.95985 8.12398 10.2498L8.41398 9.73985ZM11.304 5.69985C9.71398 4.19985 8.33398 3.61985 7.70398 3.99985C7.07398 4.34985 6.88398 5.81985 7.39398 7.95985C8.18709 7.79769 8.98821 7.67753 9.79398 7.59985C10.274 6.92985 10.784 6.28985 11.304 5.69985Z" fill="currentColor"/>
</svg>
