<svg width="24" height="24" viewBox="0 0 24 24" fill="none" xmlns="http://www.w3.org/2000/svg">
<path d="M12.1274 14.0254C11.7666 14.1911 11.3714 14.4071 10.5801 14.8414C10.2801 15.0101 9.96662 15.1789 9.67487 15.3379C9.65462 15.3176 9.63362 15.2921 9.61337 15.2711C8.04812 13.5986 5.15312 12.4174 5.27612 10.1711C5.32187 9.35287 5.60312 7.20487 10.8359 4.59637C15.1424 2.47387 18.5691 3.06187 19.1609 4.36612C20.0114 6.22537 17.3241 9.68512 12.8766 10.1869C12.3844 10.2867 11.876 10.2746 11.3891 10.1515C10.9022 10.0284 10.4491 9.79754 10.0634 9.47587C9.82787 9.22012 9.79262 9.20512 9.70562 9.25612C9.56237 9.33112 9.65462 9.56287 9.70562 9.69562C9.87527 10.0028 10.1048 10.2728 10.3806 10.4897C10.6564 10.7067 10.9729 10.8661 11.3114 10.9586C13.0616 11.3369 14.8864 11.1562 16.5284 10.4419C19.2239 9.39862 21.3284 6.49837 20.7119 4.06687C20.0931 1.60162 16.0011 0.788621 12.1296 2.16412C9.70508 2.98117 7.46502 4.26735 5.53712 5.94937C3.40412 7.94437 3.06662 9.67837 3.20462 10.4044C3.70112 12.9821 7.25462 14.6599 8.67962 15.9026C8.60562 15.9426 8.54087 15.9784 8.48537 16.0099C7.77437 16.3631 5.06387 17.7799 4.38812 19.2784C3.62087 20.9764 4.51112 22.1936 5.09912 22.3571C5.98524 22.5696 6.9156 22.4999 7.76019 22.1579C8.60477 21.8158 9.32138 21.2184 9.80987 20.4491C10.2248 19.8114 10.4796 19.0829 10.5526 18.3255C10.6256 17.5682 10.5146 16.8044 10.2291 16.0991C10.3975 15.9647 10.5772 15.845 10.7661 15.7414C11.1291 15.5269 11.4749 15.3154 11.7816 15.1519C12.8321 14.6605 13.9782 14.4072 15.1379 14.4101C17.5724 14.6966 18.0531 16.2154 17.9609 16.8551C17.9176 17.082 17.8262 17.2971 17.693 17.4858C17.5598 17.6746 17.3877 17.8326 17.1884 17.9494C17.0196 18.0566 16.9634 18.0926 16.9784 18.1691C16.9986 18.2816 17.0804 18.2764 17.2236 18.2561C17.5894 18.1405 17.9116 17.917 18.148 17.6149C18.3844 17.3128 18.5239 16.9462 18.5481 16.5634C18.6231 15.0634 17.1929 13.4179 14.6609 13.4329C13.9028 13.4351 13.1524 13.5846 12.4514 13.8731C12.3389 13.9196 12.2296 13.9696 12.1236 14.0231L12.1274 14.0254ZM8.50862 19.9046C7.70012 20.7844 6.57512 21.1166 6.08912 20.8354C5.56412 20.5354 5.77187 19.2341 6.76412 18.3034C7.3513 17.7733 7.98654 17.299 8.66162 16.8866C8.77937 16.8116 8.95337 16.7126 9.16262 16.5866L9.21887 16.5559L9.34187 16.4809C9.51868 17.0742 9.5347 17.7039 9.3883 18.3054C9.24189 18.907 8.93831 19.4589 8.50862 19.9046Z" fill="currentColor"/>
</svg>
