<svg width="25" height="24" viewBox="0 0 25 24" fill="none" xmlns="http://www.w3.org/2000/svg">
<path d="M15.5668 5.10047C15.5668 5.10047 15.3668 5.16047 15.0268 5.27047C14.9668 5.09047 14.8868 4.86047 14.7668 4.64047C14.3868 3.91047 13.8268 3.53047 13.1468 3.52047C13.0968 3.52047 13.0568 3.52047 13.0068 3.53047C12.9868 3.51047 12.9668 3.48047 12.9468 3.46047C12.6568 3.14047 12.2768 2.99047 11.8268 3.00047C10.9568 3.03047 10.0868 3.66047 9.3768 4.78047C8.8768 5.57047 8.5068 6.56047 8.3968 7.32047C7.3968 7.63047 6.6968 7.85047 6.6768 7.85047C6.1668 8.01047 6.1568 8.03047 6.0868 8.50047C6.0368 8.86047 4.7168 19.1005 4.7168 19.1005L15.6968 21.0005V5.08047C15.6468 5.08047 15.5968 5.09047 15.5668 5.10047ZM13.0268 5.89047C12.4468 6.07047 11.8068 6.27047 11.1768 6.46047C11.3568 5.77047 11.6968 5.09047 12.1168 4.64047C12.2768 4.47047 12.4868 4.29047 12.7468 4.18047C12.9868 4.69047 13.0368 5.40047 13.0268 5.89047ZM11.8368 3.58047C12.0368 3.58047 12.2168 3.62047 12.3668 3.72047C12.1268 3.84047 11.9068 4.02047 11.6868 4.25047C11.1368 4.84047 10.7068 5.77047 10.5368 6.66047C10.0068 6.82047 9.4968 6.98047 9.0168 7.13047C9.3168 5.72047 10.4968 3.62047 11.8368 3.58047ZM10.1368 11.5705C10.1968 12.5005 12.6568 12.7105 12.7968 14.9005C12.9068 16.6205 11.8868 17.8005 10.4068 17.8905C8.6468 18.0005 7.6668 16.9605 7.6668 16.9605L8.0368 15.3705C8.0368 15.3705 9.0168 16.1105 9.7968 16.0605C10.3068 16.0305 10.4868 15.6105 10.4768 15.3205C10.3968 14.1005 8.3968 14.1705 8.2768 12.1705C8.1668 10.4805 9.2768 8.78047 11.7168 8.62047C12.6668 8.56047 13.1468 8.80047 13.1468 8.80047L12.5868 10.8905C12.5868 10.8905 11.9668 10.6105 11.2268 10.6505C10.1468 10.7205 10.1268 11.4005 10.1368 11.5705ZM13.6068 5.71047C13.5968 5.27047 13.5468 4.65047 13.3368 4.12047C13.9968 4.25047 14.3268 4.99047 14.4668 5.44047C14.2168 5.52047 13.9268 5.61047 13.6068 5.71047ZM16.0568 20.9605L20.6168 19.8305C20.6168 19.8305 18.6568 6.57047 18.6468 6.48047C18.6368 6.39047 18.5568 6.34047 18.4868 6.33047C18.4168 6.32047 17.1368 6.30047 17.1368 6.30047C17.1368 6.30047 16.3568 5.54047 16.0568 5.25047V20.9605Z" fill="currentColor"/>
</svg>
