<svg width="24" height="24" viewBox="0 0 24 24" fill="none" xmlns="http://www.w3.org/2000/svg">
<path d="M13.3743 9.66793H14.5913L14.6613 9.99893L14.9123 9.81893C15.201 9.64319 15.5376 9.5622 15.8747 9.5873C16.2118 9.61241 16.5327 9.74235 16.7923 9.95893C17.2273 10.3389 17.5093 10.8649 17.5863 11.4369C17.7126 12.1115 17.6468 12.808 17.3963 13.4469C17.2932 13.7394 17.114 13.999 16.877 14.1989C16.64 14.3988 16.3539 14.5317 16.0483 14.5839C15.6617 14.6597 15.2608 14.5803 14.9323 14.3629L14.7823 14.2729V15.8299L13.3943 16.1219L13.3743 9.66793ZM14.7613 12.1009V13.0459C14.7601 13.0762 14.7657 13.1063 14.7779 13.134C14.79 13.1617 14.8082 13.1863 14.8313 13.2059C14.9191 13.2824 15.0223 13.3392 15.134 13.3724C15.2456 13.4056 15.3631 13.4144 15.4785 13.3983C15.5939 13.3822 15.7044 13.3415 15.8027 13.279C15.901 13.2165 15.9847 13.1336 16.0483 13.0359C16.2273 12.7322 16.3116 12.3819 16.2903 12.0299C16.2937 11.7122 16.2025 11.4006 16.0283 11.1349C15.9674 11.0355 15.8851 10.9509 15.7874 10.8873C15.6896 10.8238 15.579 10.7828 15.4634 10.7675C15.3478 10.7521 15.2303 10.7628 15.1194 10.7987C15.0084 10.8346 14.9069 10.8948 14.8223 10.9749C14.7862 11.013 14.7649 11.0626 14.7623 11.1149C14.7523 11.4669 14.7623 11.7889 14.7623 12.1009M19.2862 12.6129C19.2876 12.7484 19.3234 12.8814 19.3902 12.9993C19.457 13.1171 19.5527 13.2161 19.6682 13.2869C19.9572 13.4419 20.2903 13.4949 20.6133 13.4369C20.9793 13.4169 21.3382 13.3249 21.6682 13.1669V14.1409C21.6731 14.1791 21.6649 14.2178 21.6449 14.2507C21.6249 14.2835 21.5944 14.3087 21.5583 14.3219C21.0116 14.5738 20.4064 14.6713 19.8083 14.6039C19.3214 14.5543 18.8666 14.3377 18.5212 13.9909C18.2387 13.6881 18.0474 13.3117 17.9693 12.9049C17.7956 12.165 17.8803 11.388 18.2092 10.7029C18.3676 10.3424 18.633 10.0393 18.9694 9.8347C19.3059 9.6301 19.6971 9.53388 20.0901 9.55909C20.483 9.58431 20.8587 9.72974 21.1663 9.97566C21.4738 10.2216 21.6983 10.5561 21.8092 10.9339C21.9272 11.2569 21.9922 11.5959 22.0002 11.9399V12.6229H19.2862V12.6129ZM20.6933 11.6079C20.7088 11.4603 20.6854 11.3111 20.6254 11.1753C20.5654 11.0396 20.4709 10.9218 20.3512 10.8339C20.2468 10.7603 20.1221 10.7208 19.9942 10.7208C19.8664 10.7208 19.7417 10.7603 19.6372 10.8339C19.5128 10.9213 19.4131 11.0395 19.3479 11.1769C19.2827 11.3143 19.2542 11.4662 19.2652 11.6179L20.6933 11.6079ZM2.13425 12.9849L2.38625 13.1049C2.72625 13.2709 3.09425 13.3729 3.47225 13.4079C3.62558 13.4219 3.77958 13.4219 3.93425 13.4079C3.98967 13.3945 4.04012 13.3656 4.07974 13.3245C4.11935 13.2835 4.14651 13.2321 4.15803 13.1763C4.16956 13.1204 4.16498 13.0624 4.14484 13.0091C4.1247 12.9557 4.08981 12.9092 4.04425 12.8749C3.94358 12.8049 3.83658 12.7446 3.72325 12.6939C3.40125 12.5629 3.07925 12.4519 2.71825 12.3019C2.52384 12.196 2.35782 12.0448 2.23429 11.8611C2.11076 11.6773 2.03335 11.4665 2.00862 11.2465C1.98389 11.0265 2.01257 10.8038 2.09224 10.5972C2.1719 10.3907 2.3002 10.2064 2.46625 10.0599C2.82093 9.7693 3.26471 9.60937 3.72325 9.60693C4.21225 9.57693 4.70125 9.64793 5.16125 9.81793C5.18965 9.82503 5.21447 9.84227 5.23105 9.86639C5.24762 9.89052 5.25481 9.91988 5.25125 9.94893V11.1249C5.03025 11.0549 4.81925 10.9549 4.59825 10.9049C4.37625 10.8539 4.06525 10.8339 3.80325 10.8039C3.73083 10.7876 3.65567 10.7876 3.58325 10.8039C3.53667 10.8167 3.49478 10.8427 3.4626 10.8787C3.43041 10.9147 3.40931 10.9593 3.40181 11.007C3.39431 11.0547 3.40075 11.1036 3.42034 11.1477C3.43993 11.1919 3.47184 11.2295 3.51225 11.2559C3.61958 11.3279 3.73358 11.3883 3.85425 11.4369C4.19558 11.5503 4.53058 11.6809 4.85925 11.8289C5.11813 11.9543 5.32677 12.1639 5.45103 12.4233C5.57529 12.6827 5.6078 12.9766 5.54325 13.2569C5.50491 13.5649 5.36738 13.8521 5.15144 14.0751C4.93551 14.2981 4.65288 14.4447 4.34625 14.4929C3.62025 14.6639 2.85725 14.5929 2.17525 14.2929C2.15897 14.286 2.14484 14.2748 2.1343 14.2605C2.12376 14.2463 2.11718 14.2295 2.11525 14.2119V13.0049C2.12094 12.9973 2.12667 12.9906 2.13425 12.9849ZM5.85425 8.76293L7.20125 8.47093V9.66793H8.20725V10.8439H7.20025V12.8539C7.19437 12.9368 7.20832 13.0199 7.24094 13.0963C7.27357 13.1727 7.32393 13.2403 7.38785 13.2933C7.45177 13.3464 7.52742 13.3835 7.60853 13.4015C7.68964 13.4195 7.77387 13.4179 7.85425 13.3969C7.98625 13.3836 8.11692 13.3603 8.24625 13.3269V14.3419C8.24625 14.4119 8.24625 14.4529 8.16625 14.4729C7.69617 14.6488 7.17833 14.6488 6.70825 14.4729C6.46738 14.3851 6.2573 14.229 6.10369 14.0237C5.95008 13.8184 5.85958 13.5728 5.84325 13.3169C5.83806 13.25 5.83806 13.1828 5.84325 13.1159V8.76293H5.85425ZM8.70025 9.67793H9.79525C9.87525 9.67793 9.89525 9.67793 9.90525 9.76793C9.92325 9.86993 9.94692 9.9706 9.97625 10.0699L10.0163 9.96993C10.1323 9.82176 10.2908 9.71251 10.4705 9.65676C10.6503 9.60101 10.8427 9.60142 11.0223 9.65793V10.9039C10.868 10.895 10.7135 10.895 10.5593 10.9039C10.4431 10.9154 10.3304 10.9494 10.2273 11.0039C10.1445 11.0405 10.0751 11.1017 10.0284 11.1792C9.98165 11.2567 9.95996 11.3467 9.96625 11.4369V14.5029H8.69925L8.70025 9.67793ZM11.4743 9.67793H12.8513V14.5129H11.4743V9.67793ZM11.4643 9.25493V8.24993C11.4643 8.18993 11.4643 8.15993 11.5343 8.14993L12.8213 7.87793V8.96393L11.4643 9.25493Z" fill="currentColor"/>
</svg>
