<svg width="60" height="60" viewBox="0 0 60 60" fill="none" xmlns="http://www.w3.org/2000/svg">
<path d="M41.875 47.1094C39.8906 46.9271 37.3438 46.543 34.8824 43.8548V49.3849C39.4043 52.3242 47.1813 51.7847 49.8926 48.252C51.5039 46.1523 52.168 43.3398 50.975 40.1544C48.1641 34.4921 41.4844 34.1406 39.5419 30.5651C37.3958 24.7739 46.2464 23.7275 50.4987 27.6291V22.4306C48.687 21.2605 45.806 21.1348 43.785 21.244C38.4517 21.5319 34.8677 24.6308 34.9212 29.2471C34.6915 35.6909 42.0497 37.35 45.7445 40.3321C48.2538 42.4614 48.0742 47.6252 41.875 47.1094ZM20.8174 50.8024V25.7842H12.7575V21.6471H33.3421V25.7842H25.2654V50.8024H20.8174ZM56.25 3.75V56.25H3.75V3.75H56.25ZM60 0H0V60H60V0Z" fill="white"/>
</svg>
