<svg width="143" height="143" viewBox="0 0 143 143" fill="none" xmlns="http://www.w3.org/2000/svg">
<path d="M110.528 32.5L117.768 26.0667L119.866 28.4281C120.545 29.1926 120.98 29.9948 121.17 30.8347C121.372 31.6754 121.339 32.493 121.071 33.2875C120.81 34.0763 120.323 34.7873 119.61 35.4206C118.904 36.0481 118.138 36.451 117.311 36.6294C116.49 36.802 115.671 36.7414 114.853 36.4477C114.048 36.1546 113.306 35.6259 112.626 34.8614L110.528 32.5ZM112.869 32.7854L113.818 33.8543C114.256 34.3467 114.734 34.6818 115.251 34.8596C115.781 35.0382 116.316 35.0667 116.857 34.9452C117.405 34.8178 117.928 34.5326 118.427 34.0893C118.933 33.6402 119.277 33.1541 119.462 32.6309C119.646 32.1077 119.677 31.5754 119.556 31.0342C119.44 30.4994 119.163 29.9859 118.726 29.4935L117.776 28.4246L112.869 32.7854Z" fill="white"/>
<path d="M119.505 43.9518L128.072 39.4356L131.073 45.1281L129.693 45.8556L127.517 41.727L125.32 42.8849L127.375 46.7834L125.995 47.5109L123.94 43.6123L121.709 44.7884L123.885 48.9169L122.505 49.6443L119.505 43.9518Z" fill="white"/>
<path d="M125.46 58.7729C125.307 58.177 125.273 57.595 125.359 57.0268C125.447 56.467 125.637 55.9527 125.928 55.4839C126.229 55.0214 126.618 54.6391 127.095 54.3371L128.079 55.6005C127.6 55.9656 127.261 56.4021 127.061 56.9102C126.869 57.4161 126.842 57.9376 126.981 58.4747C127.059 58.7768 127.172 59.0251 127.321 59.2195C127.48 59.4201 127.658 59.5575 127.857 59.6317C128.057 59.7143 128.274 59.7253 128.509 59.6647C128.786 59.5933 128.991 59.451 129.124 59.2377C129.268 59.0306 129.348 58.7505 129.364 58.3972L129.479 56.4478C129.517 55.6592 129.715 55.0219 130.073 54.5358C130.431 54.0497 130.917 53.7276 131.529 53.5697C132.066 53.4312 132.574 53.439 133.052 53.5931C133.533 53.7556 133.947 54.0427 134.295 54.4542C134.653 54.872 134.911 55.3871 135.069 55.9998C135.214 56.562 135.246 57.1041 135.166 57.626C135.094 58.1458 134.926 58.6189 134.66 59.0455C134.404 59.4783 134.063 59.8392 133.637 60.1282L132.644 58.8806C133.066 58.5748 133.355 58.2048 133.512 57.7707C133.677 57.3343 133.697 56.8728 133.571 56.386C133.498 56.1007 133.382 55.8619 133.225 55.6697C133.077 55.4753 132.898 55.3379 132.689 55.2575C132.491 55.1832 132.275 55.1764 132.04 55.237C131.78 55.3041 131.57 55.4475 131.412 55.6673C131.263 55.8849 131.177 56.1798 131.157 56.5521L131.061 58.4162C131.01 59.2259 130.818 59.8705 130.485 60.3501C130.155 60.8381 129.675 61.1633 129.045 61.3256C128.508 61.4641 127.998 61.4479 127.516 61.277C127.033 61.1061 126.611 60.8075 126.251 60.3814C125.89 59.9552 125.627 59.419 125.46 58.7729Z" fill="white"/>
<path d="M127.278 68.7686L136.949 68.2451L137.044 70.0105L127.374 70.534L127.278 68.7686Z" fill="white"/>
<path d="M126.529 81.9019C126.641 81.2176 126.868 80.6048 127.21 80.0635C127.553 79.5222 127.983 79.0697 128.498 78.7059C129.014 78.3421 129.592 78.0849 130.231 77.9343C130.869 77.7923 131.543 77.7791 132.253 77.8948C132.963 78.0104 133.598 78.2324 134.159 78.5609C134.728 78.8993 135.195 79.3179 135.562 79.8166C135.935 80.3253 136.195 80.89 136.34 81.5107C136.493 82.1328 136.514 82.7859 136.402 83.4703C136.291 84.1546 136.076 84.7474 135.757 85.2487C135.437 85.7585 135.054 86.1703 134.608 86.484C134.17 86.7991 133.711 87.0009 133.231 87.0896L132.74 85.4159C133.265 85.3171 133.717 85.0789 134.094 84.7013C134.472 84.3238 134.711 83.827 134.811 83.2112C134.909 82.6124 134.854 82.0591 134.647 81.5512C134.439 81.0518 134.107 80.6335 133.653 80.296C133.197 79.9672 132.636 79.7484 131.968 79.6398C131.301 79.5311 130.694 79.564 130.148 79.7384C129.609 79.9228 129.16 80.223 128.803 80.6389C128.445 81.0549 128.218 81.5622 128.12 82.161C128.041 82.6486 128.062 83.113 128.183 83.5542C128.313 83.9969 128.533 84.3708 128.843 84.6759C129.162 84.9825 129.565 85.1755 130.053 85.2549L130.784 85.374L129.962 86.0567L130.539 82.5153L132.014 82.7556L131.283 87.2465L130.32 87.0898C129.585 86.97 128.955 86.7401 128.431 86.4001C127.907 86.06 127.487 85.6449 127.172 85.1545C126.864 84.674 126.654 84.1526 126.544 83.5902C126.442 83.0292 126.437 82.4665 126.529 81.9019Z" fill="white"/>
<path d="M124.022 92.5332L132.831 96.559L132.258 97.8123L123.516 99.6772L123.683 98.9674L130.339 102.01L129.605 103.618L120.796 99.592L121.374 98.3268L130.131 96.5545L129.991 97.2051L123.287 94.1412L124.022 92.5332Z" fill="white"/>
<path d="M117.169 105.369L124.76 111.384L120.764 116.428L119.541 115.459L122.44 111.801L120.494 110.259L117.757 113.713L116.534 112.744L119.271 109.29L117.294 107.724L114.396 111.382L113.173 110.413L117.169 105.369Z" fill="white"/>
<path d="M61.164 122.769L53.8734 129.967L51.8228 128.952L53.1249 118.79L54.8493 119.643L54.544 121.813L57.8995 123.474L59.4514 121.921L61.164 122.769ZM56.7531 124.647L54.3064 123.436L53.6115 128.474L53.1688 128.254L56.7531 124.647Z" fill="white"/>
<path d="M44.5386 112.063C45.0523 112.528 45.443 113.052 45.7109 113.634C45.9787 114.216 46.125 114.823 46.1498 115.453C46.1746 116.084 46.0763 116.709 45.8551 117.327C45.6274 117.939 45.272 118.512 44.7889 119.045C44.3057 119.578 43.7738 119.991 43.1929 120.283C42.5999 120.576 41.9944 120.741 41.3765 120.777C40.7463 120.814 40.1314 120.725 39.5318 120.508C38.9264 120.299 38.3668 119.961 37.8532 119.496C37.3395 119.03 36.959 118.527 36.7116 117.987C36.4578 117.441 36.3206 116.896 36.3001 116.351C36.2737 115.812 36.3537 115.317 36.5402 114.866L38.212 115.364C38.0093 115.859 37.9636 116.367 38.0751 116.889C38.1866 117.412 38.4735 117.882 38.9358 118.301C39.3853 118.709 39.8795 118.964 40.4183 119.066C40.9507 119.163 41.482 119.112 42.0122 118.914C42.536 118.711 43.025 118.359 43.479 117.858C43.933 117.357 44.2354 116.83 44.3862 116.276C44.5248 115.723 44.5167 115.184 44.3621 114.658C44.2075 114.131 43.9054 113.665 43.4559 113.257C43.0899 112.925 42.6888 112.69 42.2525 112.552C41.8104 112.42 41.377 112.402 40.9521 112.496C40.5214 112.597 40.1402 112.831 39.8084 113.197L39.3107 113.746L39.1851 112.684L41.8433 115.094L40.8393 116.202L37.4682 113.146L38.1231 112.423C38.6237 111.871 39.1592 111.468 39.7295 111.213C40.2999 110.958 40.8766 110.831 41.4596 110.833C42.0303 110.836 42.5817 110.944 43.1137 111.157C43.6398 111.377 44.1148 111.679 44.5386 112.063Z" fill="white"/>
<path d="M37.0516 104.106L28.9264 109.377L25.4244 103.979L26.7331 103.13L29.273 107.045L31.3561 105.694L28.9577 101.996L30.2665 101.147L32.6648 104.845L34.7807 103.472L32.2408 99.5568L33.5495 98.7078L37.0516 104.106Z" fill="white"/>
<path d="M30.7995 93.2199L21.623 96.3166L21.1823 95.0109L26.2774 87.6662L26.6415 88.298L19.7067 90.6382L19.1414 88.963L28.318 85.8663L28.7628 87.1843L23.5935 94.4716L23.2502 93.9015L30.2342 91.5447L30.7995 93.2199Z" fill="white"/>
<path d="M26.8756 74.6826C26.9093 75.3751 26.815 76.0218 26.5926 76.6226C26.3698 77.2148 26.0441 77.7426 25.6155 78.206C25.1865 78.6608 24.6749 79.0241 24.0807 79.296C23.4866 79.5679 22.8303 79.7213 22.1118 79.7563C21.3933 79.7913 20.7254 79.7067 20.1081 79.5025C19.4817 79.2901 18.9372 78.9782 18.4746 78.5669C18.003 78.1473 17.6316 77.6491 17.3606 77.0723C17.0809 76.4959 16.9242 75.8614 16.8904 75.1689C16.8567 74.4764 16.9434 73.8518 17.1506 73.295C17.3573 72.7296 17.6462 72.247 18.0172 71.8472C18.3795 71.4477 18.786 71.1546 19.2368 70.9678L20.0541 72.5159C19.5782 72.7213 19.195 73.048 18.9044 73.496C18.6052 73.9444 18.4706 74.4759 18.5005 75.0905C18.53 75.6964 18.699 76.2262 19.0074 76.6797C19.3154 77.1246 19.7268 77.4646 20.2415 77.6999C20.7558 77.9265 21.3506 78.0233 22.0258 77.9904C22.701 77.9575 23.2878 77.8031 23.7863 77.5272C24.2757 77.2431 24.6521 76.8646 24.9154 76.3919C25.1783 75.9106 25.295 75.3669 25.2655 74.761C25.2356 74.1464 25.0542 73.6303 24.7215 73.2126C24.3802 72.7954 23.9627 72.5077 23.469 72.3495L24.132 70.7294C24.5988 70.8715 25.0363 71.1235 25.4443 71.4854C25.8438 71.8477 26.1739 72.3002 26.4346 72.8428C26.6948 73.3768 26.8419 73.99 26.8756 74.6826Z" fill="white"/>
<path d="M27.7138 61.3221L23.5264 60.3893L17.551 62.4011L17.9892 60.4343L22.6431 58.9139L22.4876 59.6118L18.9163 56.2724L19.3544 54.3056L23.901 58.648L28.1011 59.5837L27.7138 61.3221Z" fill="white"/>
<path d="M46.2778 28.2261L38.0496 22.4941L39.5011 21.2713L46.3805 26.2697L46.0027 26.588L42.3148 18.901L43.7167 17.7201L50.6558 22.6683L50.278 22.9866L46.5205 15.3582L47.9721 14.1354L52.2233 23.2175L50.6723 24.5241L43.8558 19.7617L44.2932 19.3932L47.8288 26.9195L46.2778 28.2261Z" fill="white"/>
<path d="M58.3851 19.5876L56.3532 10.1181L62.645 8.76806L62.9723 10.2933L58.4091 11.2725L58.9301 13.7002L63.239 12.7756L63.5663 14.3009L59.2574 15.2255L59.7865 17.6914L64.3496 16.7122L64.6769 18.2375L58.3851 19.5876Z" fill="white"/>
<path d="M71.1617 16.8082L71.4809 7.12842L75.5607 7.26298C76.2017 7.28413 76.7437 7.41473 77.1867 7.6548C77.6386 7.88649 77.9791 8.20989 78.2083 8.625C78.4463 9.03174 78.5559 9.52095 78.537 10.0926C78.5225 10.5344 78.3875 10.9462 78.1321 11.328C77.8857 11.7014 77.4984 12.0051 76.9704 12.2392L76.9974 11.4206C77.4678 11.6182 77.8372 11.8559 78.1055 12.1335C78.3739 12.4112 78.5589 12.7165 78.6606 13.0493C78.7624 13.3822 78.8073 13.7305 78.7953 14.0943C78.7647 15.0212 78.4332 15.7386 77.8008 16.2467C77.1773 16.7464 76.3242 16.9784 75.2414 16.9427L71.1617 16.8082ZM72.9801 15.3073L75.4748 15.3896C75.9339 15.4047 76.3018 15.2911 76.5786 15.0488C76.8644 14.7981 77.0142 14.4605 77.0282 14.036C77.0422 13.6116 76.9149 13.2649 76.6463 12.9959C76.3864 12.7272 76.0268 12.5852 75.5678 12.5701L73.0731 12.4878L72.9801 15.3073ZM73.1241 10.9417L75.5278 11.0209C75.8916 11.0329 76.1852 10.9386 76.4086 10.7378C76.6323 10.5284 76.7497 10.2548 76.7609 9.91699C76.772 9.57917 76.6726 9.30708 76.4626 9.10072C76.2526 8.89435 75.9658 8.78516 75.602 8.77316L73.1983 8.69388L73.1241 10.9417Z" fill="white"/>
</svg>
