<svg width="60" height="60" viewBox="0 0 60 60" fill="none" xmlns="http://www.w3.org/2000/svg">
<g clip-path="url(#clip0_1093_122)">
<path d="M45.9375 0H14.0625C6.296 0 0 6.296 0 14.0625V45.9375C0 53.704 6.296 60 14.0625 60H45.9375C53.704 60 60 53.704 60 45.9375V14.0625C60 6.296 53.704 0 45.9375 0Z" fill="black"/>
<path d="M33.0907 28.6226H37.9462V24.2295H33.0907V28.6226ZM27.3105 28.6226H32.1659V24.2295H27.3105V28.6226ZM21.6457 28.6226H26.5012V24.2295H21.6457V28.6226ZM15.9809 28.6226H20.7211V24.2295H15.9811L15.9809 28.6226ZM10.2007 28.6226H15.0562V24.2295H10.2007V28.6226ZM15.9811 23.3046H20.7209V18.9117H15.9811V23.3046ZM21.6459 23.3046H26.5012V18.9117H21.6457L21.6459 23.3046ZM27.3105 23.3046H32.1659V18.9117H27.3105V23.3046ZM27.3105 17.9866H32.1659V13.5938H27.3105V17.9866ZM53.4375 26.6576C53.4375 26.6576 51.3565 24.6921 47.0791 25.3859C46.6167 22.0331 43.0329 20.0679 43.0329 20.0679C43.0329 20.0679 39.6804 24.1141 42.108 28.6228C41.4145 28.9697 40.2584 29.4321 38.5242 29.4321H6.73265C6.15445 31.6287 6.15445 46.1948 22.1081 46.1948C33.5531 46.1948 42.108 40.8771 46.1543 31.166C52.1658 31.6284 53.4375 26.6576 53.4375 26.6576Z" fill="white"/>
</g>
<defs>
<clipPath id="clip0_1093_122">
<rect width="60" height="60" fill="white"/>
</clipPath>
</defs>
</svg>
