<svg width="60" height="60" viewBox="0 0 60 60" fill="none" xmlns="http://www.w3.org/2000/svg">
<g clip-path="url(#clip0_953_1514)">
<path d="M45.9375 0H14.0625C6.296 0 0 6.296 0 14.0625V45.9375C0 53.704 6.296 60 14.0625 60H45.9375C53.704 60 60 53.704 60 45.9375V14.0625C60 6.296 53.704 0 45.9375 0Z" fill="black"/>
<path d="M40.1186 25.2166C37.649 14.3227 32.5022 11.4225 31.1892 9.37242C30.6477 8.4693 30.1681 7.53051 29.7536 6.5625C29.6843 7.53047 29.5568 8.13984 28.7341 8.87391C27.0825 10.3465 20.0676 16.0629 19.4772 28.4409C18.9272 39.982 27.9616 47.0984 29.155 47.8341C30.0729 48.2857 31.1906 47.8437 31.736 47.4291C36.0909 44.4403 42.0412 36.472 40.1233 25.2166" fill="white"/>
<path d="M30.1279 41.6885C29.9005 44.545 29.7377 46.2049 29.1602 47.8373C29.1602 47.8373 29.5391 50.5568 29.8054 53.4375H30.7473C30.972 51.4088 31.3151 49.3951 31.7748 47.4065C30.5554 46.8065 30.1748 44.1951 30.1279 41.6885Z" fill="white"/>
<path d="M31.7735 47.4082C30.5412 46.8389 30.1847 44.1724 30.1298 41.6885C30.4345 37.5909 30.5234 33.4801 30.3961 29.3732C30.3314 27.2184 30.4266 9.41434 29.8652 6.80762C30.2493 7.69048 30.6917 8.54675 31.1897 9.37074C32.5027 11.4225 37.6512 14.3226 40.1191 25.2166C42.0417 36.4528 36.1238 44.4 31.7735 47.4082Z" fill="#D6D6D6"/>
</g>
<defs>
<clipPath id="clip0_953_1514">
<rect width="60" height="60" fill="white"/>
</clipPath>
</defs>
</svg>
