<svg width="60" height="60" viewBox="0 0 60 60" fill="none" xmlns="http://www.w3.org/2000/svg">
<path d="M44.16 44.125L25.65 20H20V40H25V27.365L40.2175 47.1975C35.8454 49.7988 30.6463 50.6362 25.6786 49.5392C20.7108 48.4422 16.3478 45.4933 13.4777 41.2928C10.6076 37.0922 9.44615 31.9558 10.2298 26.9291C11.0134 21.9024 13.6832 17.3632 17.6957 14.2356C21.7082 11.108 26.7617 9.62702 31.8277 10.0942C36.8936 10.5614 41.5911 12.9416 44.964 16.7502C48.3368 20.5589 50.1314 25.5098 49.9825 30.595C49.8336 35.6803 47.7524 40.5177 44.1625 44.1225M30 55C43.8075 55 55 43.8075 55 30C55 16.1925 43.8075 5 30 5C16.1925 5 5 16.1925 5 30C5 43.8075 16.1925 55 30 55ZM35 30V20H40V30H35Z" fill="white"/>
</svg>
