<svg width="60" height="60" viewBox="0 0 60 60" fill="none" xmlns="http://www.w3.org/2000/svg">
<g clip-path="url(#clip0_1093_101)">
<path d="M45.9375 0H14.0625C6.296 0 0 6.296 0 14.0625V45.9375C0 53.704 6.296 60 14.0625 60H45.9375C53.704 60 60 53.704 60 45.9375V14.0625C60 6.296 53.704 0 45.9375 0Z" fill="black"/>
<path d="M39.6234 20.7685L27.778 32.614L24.4375 29.2737C36.0866 17.6248 37.2377 18.6354 39.6234 20.7685Z" fill="#EEEEEE"/>
<path d="M27.7782 32.8946C27.6938 32.8946 27.6378 32.8667 27.5815 32.8104L24.2131 29.4701C24.1865 29.4448 24.1653 29.4143 24.1508 29.3806C24.1364 29.3468 24.1289 29.3104 24.1289 29.2737C24.1289 29.237 24.1364 29.2006 24.1508 29.1669C24.1653 29.1331 24.1865 29.1026 24.2131 29.0773C36.0587 17.2315 37.2936 18.3544 39.792 20.6C39.8483 20.6562 39.8762 20.7125 39.8762 20.7966C39.8762 20.881 39.8483 20.937 39.792 20.9928L27.9465 32.8104C27.9186 32.8667 27.8342 32.8946 27.7782 32.8946ZM24.8307 29.2737L27.7782 32.221L39.2026 20.7966C37.1255 18.9439 35.7219 18.3825 24.8307 29.2737Z" fill="black"/>
<path d="M31.1743 36.0105L27.9463 32.7824L39.7918 20.9371C42.9639 24.1368 38.2199 29.3299 31.1743 36.0105Z" fill="#EEEEEE"/>
<path d="M31.175 36.2914C31.0907 36.2914 31.0349 36.2632 30.9786 36.207L27.7506 32.9789C27.6943 32.9229 27.6943 32.8667 27.6943 32.7825C27.6943 32.6982 27.7225 32.6422 27.7787 32.5859L39.624 20.7406C39.6494 20.714 39.6799 20.6928 39.7136 20.6783C39.7474 20.6638 39.7838 20.6564 39.8205 20.6564C39.8573 20.6564 39.8937 20.6638 39.9275 20.6783C39.9612 20.6928 39.9917 20.714 40.0171 20.7406C40.3755 21.0722 40.6586 21.4768 40.8475 21.9271C41.0363 22.3774 41.1265 22.863 41.1118 23.3511C41.0558 26.4666 37.5189 30.4245 31.3996 36.207C31.3154 36.2632 31.2311 36.2914 31.175 36.2914ZM28.34 32.7825C30.1363 34.6069 30.8945 35.337 31.175 35.6175C35.8909 31.1264 40.4661 26.5229 40.4943 23.3511C40.5224 22.6212 40.2418 21.8914 39.7644 21.3298L28.34 32.7825Z" fill="black"/>
<path d="M24.494 29.3578L26.8799 31.7437C26.9359 31.8 26.9359 31.856 26.8799 31.9123C26.8518 31.9404 26.8518 31.9404 26.8239 31.9404L21.8833 33.007C21.6309 33.0352 21.4063 32.8666 21.3501 32.614C21.322 32.4736 21.3782 32.3334 21.4626 32.2491L24.3255 29.3859C24.3817 29.3297 24.4659 29.3016 24.494 29.3578Z" fill="#EEEEEE"/>
<path d="M21.7992 33.2878C21.3782 33.2878 21.0693 32.9507 21.0693 32.5296C21.0693 32.3334 21.1537 32.1368 21.2941 31.9964L24.157 29.1332C24.3255 28.9929 24.5503 28.9929 24.7186 29.1332L27.1045 31.5192C27.2728 31.6596 27.2728 31.9122 27.1045 32.0805C27.0482 32.1368 26.9922 32.1649 26.9079 32.193L21.9677 33.2597C21.9114 33.2597 21.8552 33.2878 21.7992 33.2878ZM24.4099 29.6665L21.659 32.4173C21.6028 32.4736 21.5746 32.5577 21.6309 32.6418C21.659 32.7262 21.7429 32.7543 21.8273 32.7262L26.4588 31.7156L24.4099 29.6665Z" fill="black"/>
<path d="M45.8833 14.2003C44.0868 12.46 41.1955 12.516 39.4551 14.3406C37.7148 16.165 37.7711 19.0281 39.5954 20.7686C40.3157 21.4645 41.246 21.9025 42.2413 22.0142C43.2365 22.1259 44.2408 21.9051 45.0974 21.3862L41.8972 18.186L45.8833 14.2003Z" fill="#EEEEEE"/>
<path d="M42.739 22.3125C40.0725 22.3125 37.9111 20.1511 37.9111 17.4844C37.9111 14.8177 40.0725 12.6562 42.739 12.6562C43.9742 12.6562 45.1812 13.1334 46.0793 14.0037C46.1356 14.0599 46.1637 14.1162 46.1637 14.2001C46.1637 14.2845 46.1356 14.3407 46.0793 14.3967L42.29 18.1861L45.2654 21.1615C45.3779 21.274 45.3779 21.4423 45.2654 21.5545L45.2093 21.6108C44.4795 22.0596 43.6093 22.3125 42.739 22.3125ZM42.739 13.2459C40.3812 13.2459 38.4725 15.1545 38.5006 17.5125C38.5006 19.8703 40.4091 21.7791 42.7672 21.7512C43.4129 21.7512 44.0583 21.6105 44.6478 21.3019L41.7005 18.3827C41.6443 18.3265 41.6164 18.2702 41.6164 18.1861C41.6164 18.1017 41.6443 18.0457 41.7005 17.9897L45.462 14.2282C44.704 13.5827 43.7496 13.2459 42.739 13.2459Z" fill="black"/>
<path d="M45.9676 14.2844L45.9116 14.2281L41.8975 18.186L45.0695 21.3581C45.3784 21.1614 45.6868 20.9371 45.9397 20.6845C46.365 20.2679 46.7034 19.7711 46.9352 19.2227C47.1671 18.6744 47.2878 18.0856 47.2904 17.4903C47.293 16.895 47.1774 16.3051 46.9503 15.7548C46.7233 15.2044 46.3892 14.7047 45.9676 14.2844Z" fill="#EEEEEE"/>
<path d="M45.0979 21.6668C45.0135 21.6668 44.9575 21.6387 44.9012 21.5824L41.7013 18.3825C41.6451 18.3263 41.6172 18.2703 41.6172 18.1861C41.6172 18.1017 41.6451 18.0455 41.7013 17.9895L45.6871 14.0039C45.7996 13.8914 45.9679 13.8914 46.0802 14.0039L46.1645 14.0602C48.0452 15.9406 48.0452 18.9722 46.1927 20.8812C45.9119 21.1617 45.603 21.4144 45.2662 21.6108C45.182 21.6389 45.126 21.6668 45.0979 21.6668ZM42.2908 18.1864L45.126 21.0214C45.3505 20.8812 45.5751 20.6846 45.7434 20.516C47.3434 18.916 47.4276 16.3057 45.8837 14.6215L42.2908 18.1864Z" fill="black"/>
<path d="M40.1009 21.2735C39.7768 20.95 39.3377 20.7683 38.8798 20.7683C38.4219 20.7683 37.9827 20.95 37.6587 21.2735L27.0762 31.856L28.8448 33.6244L40.0446 23.8001C40.7745 23.1823 40.8305 22.0875 40.2131 21.3579C40.1569 21.3298 40.1288 21.3017 40.1009 21.2735Z" fill="#EEEEEE"/>
<path d="M28.8168 33.9051C28.7327 33.9051 28.6764 33.877 28.6202 33.821L26.8518 32.0526C26.8252 32.0273 26.804 31.9968 26.7895 31.963C26.775 31.9292 26.7676 31.8929 26.7676 31.8561C26.7676 31.8194 26.775 31.783 26.7895 31.7492C26.804 31.7154 26.8252 31.6849 26.8518 31.6596L37.4341 21.0771C37.6199 20.8903 37.8408 20.7421 38.084 20.6409C38.3273 20.5397 38.5882 20.4877 38.8517 20.4877C39.1152 20.4877 39.376 20.5397 39.6193 20.6409C39.8626 20.7421 40.0835 20.8903 40.2693 21.0771C40.4561 21.2629 40.6044 21.4838 40.7056 21.7271C40.8067 21.9703 40.8588 22.2312 40.8588 22.4947C40.8588 22.7582 40.8067 23.0191 40.7056 23.2624C40.6044 23.5057 40.4561 23.7265 40.2693 23.9123L40.1852 23.9965L28.9851 33.821C28.9572 33.877 28.9009 33.9051 28.8168 33.9051ZM27.4694 31.856L28.8449 33.2315L39.8484 23.5753C40.4657 23.07 40.522 22.1437 40.0166 21.5264C39.5113 20.9088 38.5851 20.8528 37.9675 21.3576C37.9396 21.3858 37.9115 21.4139 37.8552 21.442L27.4694 31.856Z" fill="black"/>
<path d="M18.9638 43.8984C18.8513 43.9544 18.7953 44.0667 18.8232 44.1789L19.3006 46.2002C19.4131 46.4807 19.2444 46.8178 18.9357 46.9019C18.7112 46.9861 18.4588 46.9019 18.3184 46.7336L15.2305 43.6739L25.3077 33.5967L28.7884 33.6527L31.1462 36.0107C30.5848 36.4879 27.1883 39.772 18.9638 43.8984Z" fill="#EEEEEE"/>
<path d="M18.7392 47.1822C18.5147 47.1822 18.2902 47.0981 18.1498 46.9298L15.09 43.87C15.0338 43.814 15.0059 43.7578 15.0059 43.6736C15.0059 43.5895 15.034 43.5333 15.0902 43.477L25.1672 33.4C25.2234 33.3438 25.3076 33.3157 25.3638 33.3157L28.8445 33.3719C28.9287 33.3719 28.9847 33.4 29.0407 33.4561L31.3988 35.8139C31.455 35.8701 31.4829 35.9543 31.4829 36.0384C31.4829 36.1228 31.455 36.1788 31.3706 36.235L31.1742 36.4036C28.1988 39.0138 24.1566 41.6245 19.132 44.1227L19.6095 46.1156C19.6936 46.4805 19.5251 46.8736 19.1883 47.07C19.0198 47.1541 18.8796 47.1822 18.7392 47.1822ZM15.6513 43.6736L18.5428 46.5368C18.6267 46.6772 18.7952 46.7332 18.9356 46.649C19.076 46.5649 19.1323 46.3964 19.0481 46.256L18.5709 44.235C18.5147 43.9823 18.6267 43.7578 18.8515 43.6455C23.8198 41.1473 27.8339 38.565 30.7812 36.0105L28.7041 33.9333L25.4761 33.877L15.6513 43.6736Z" fill="black"/>
<path d="M12.8448 46.0878L15.2589 43.6737L18.8518 47.2667L13.1256 46.8739C12.8729 46.8457 12.7044 46.6212 12.7326 46.3683C12.7326 46.256 12.7604 46.1438 12.8448 46.0878Z" fill="#EEEEEE"/>
<path d="M18.852 47.5193L13.0976 47.1262C12.6765 47.0981 12.3957 46.7334 12.4238 46.3123C12.4519 46.1437 12.5082 45.9755 12.6486 45.8632L15.0626 43.4491C15.088 43.4225 15.1184 43.4013 15.1522 43.3869C15.186 43.3724 15.2223 43.3649 15.259 43.3649C15.2958 43.3649 15.3321 43.3724 15.3659 43.3869C15.3997 43.4013 15.4301 43.4225 15.4555 43.4491L19.0484 47.0421C19.1328 47.1262 19.1609 47.2385 19.1047 47.351C19.0484 47.4633 18.964 47.5193 18.852 47.5193ZM15.259 44.0667L13.0416 46.2841C12.9572 46.3404 12.9572 46.4808 13.0416 46.5368C13.0697 46.5649 13.0979 46.593 13.1539 46.593L18.1222 46.9298L15.259 44.0667ZM24.3256 34.8879C24.1571 34.8879 24.0448 34.7475 24.0448 34.6071C24.0448 34.523 24.073 34.4669 24.1292 34.4107L26.8519 31.688C26.8773 31.6613 26.9078 31.6401 26.9415 31.6256C26.9753 31.6111 27.0117 31.6036 27.0485 31.6036C27.0852 31.6036 27.1216 31.6111 27.1554 31.6256C27.1892 31.6401 27.2197 31.6613 27.245 31.688L29.0133 33.4563C29.0975 33.5405 29.1256 33.6246 29.0975 33.7371C29.0694 33.8212 28.9852 33.9054 28.8732 33.9335L24.3819 34.8879H24.3256ZM27.0483 32.2774L25.1958 34.1301L28.2272 33.4842L27.0483 32.2774Z" fill="black"/>
<path d="M28.7887 33.6525L25.701 34.3263C25.4765 34.3825 25.2517 34.2422 25.1957 34.0176C25.1676 33.8772 25.1957 33.7368 25.308 33.6246L27.0201 31.9122L28.7887 33.6525Z" fill="#EEEEEE"/>
<path d="M25.6451 34.6071C25.5527 34.608 25.461 34.5905 25.3755 34.5556C25.2899 34.5207 25.2122 34.469 25.1468 34.4037C25.0815 34.3383 25.0298 34.2606 24.9949 34.175C24.96 34.0895 24.9425 33.9978 24.9434 33.9054C24.9434 33.709 25.0275 33.5405 25.1398 33.4003L26.8521 31.688C26.8775 31.6613 26.908 31.6401 26.9417 31.6256C26.9755 31.6111 27.0119 31.6036 27.0487 31.6036C27.0854 31.6036 27.1218 31.6111 27.1556 31.6256C27.1894 31.6401 27.2199 31.6613 27.2452 31.688L29.0136 33.4563C29.0977 33.5405 29.1258 33.6246 29.0977 33.7371C29.0696 33.8212 28.9854 33.9054 28.8734 33.9335L25.7855 34.6071H25.6451ZM27.0486 32.2774L25.5328 33.7931C25.4768 33.8494 25.4768 33.9054 25.5047 33.9616C25.5328 34.0176 25.5891 34.0458 25.6732 34.0458L28.2556 33.4842L27.0486 32.2774ZM45.9959 16.9788C45.9399 16.8105 45.7432 16.7264 45.5747 16.7826C45.4064 16.8384 45.3223 17.0351 45.3785 17.2036C45.3785 17.2317 45.4064 17.2598 45.4064 17.2877C45.5747 17.6248 45.5189 18.0457 45.2942 18.3544C45.1819 18.495 45.21 18.6914 45.3223 18.8037C45.4627 18.9157 45.6591 18.888 45.7714 18.7474C46.1925 18.214 46.2767 17.5404 45.9959 16.9788Z" fill="black"/>
</g>
<defs>
<clipPath id="clip0_1093_101">
<rect width="60" height="60" fill="white"/>
</clipPath>
</defs>
</svg>
