<svg width="60" height="60" viewBox="0 0 60 60" fill="none" xmlns="http://www.w3.org/2000/svg">
<mask id="mask0_953_682" style="mask-type:luminance" maskUnits="userSpaceOnUse" x="0" y="0" width="60" height="60">
<path d="M0 0H60V60H0V0Z" fill="white"/>
</mask>
<g mask="url(#mask0_953_682)">
<path d="M30 0C46.5 0 60 13.5 60 30C60 46.5 46.5 60 30 60C13.5 60 0 46.5 0 30C0 13.5 13.5 0 30 0ZM24 39.9375C24.375 41.625 24.375 43.125 24 44.4375L23.8125 45C23.8125 45.1875 23.625 45.375 23.625 45.375C23.25 46.125 22.875 46.6875 22.3125 47.4375C20.625 49.3125 18.1875 50.0625 17.0625 49.5C15.9375 48.9375 16.5 46.125 18.5625 44.0625C20.8125 41.8125 23.8125 40.3125 23.8125 40.3125L24 39.9375ZM48.75 12.75C47.4375 7.5 38.625 5.625 30.1875 8.625C25.3125 10.5 19.875 13.3125 15.9375 16.875C11.25 21.1875 10.6875 24.9375 10.875 26.4375C12 31.875 19.5 35.625 22.6875 38.25C21.75 38.625 15 42 13.5 45.5625C11.8125 49.3125 13.6875 51.9375 15 52.125C18.9375 53.25 23.0625 51.1875 25.125 48C27.1875 44.8125 27 40.875 26.0625 38.8125C27.5211 38.3621 29.0715 38.2975 30.5625 38.625C35.8125 39.1875 36.9375 42.5625 36.5625 43.875C36.1875 45.1875 35.25 45.9375 34.875 46.3125C34.5 46.5 34.3125 46.6875 34.5 46.6875C34.5 46.875 34.6875 46.875 35.0625 46.875C35.4375 46.875 37.875 45.75 37.875 43.125C38.0625 39.9375 34.875 36.375 29.4375 36.375C27.1875 36.375 25.6875 36.5625 24.75 36.9375C24.75 36.75 24.5625 36.75 24.5625 36.75C21.1875 33.1875 15 30.5625 15.1875 25.6875C15.1875 24 15.9375 19.3125 27.1875 13.6875C36.375 9 43.875 10.3125 45.1875 13.125C47.0625 17.0625 41.25 24.5625 31.6875 25.6875C27.9375 26.0625 26.0625 24.75 25.6875 24.1875C25.125 23.625 25.125 23.625 24.9375 23.625C24.5625 23.8125 24.75 24.1875 24.9375 24.5625C25.3125 25.3125 26.4375 26.625 28.5 27.375C30.1875 27.9375 34.5 28.3125 39.75 26.25C45.5625 24 50.0625 17.8125 48.75 12.5625V12.75Z" fill="white"/>
</g>
</svg>
