<svg width="1200" height="630" viewBox="0 0 1200 630" fill="none" xmlns="http://www.w3.org/2000/svg">
<g clip-path="url(#clip0_3162_101)">
<rect width="1200" height="630" fill="black"/>
<g opacity="0.15" clip-path="url(#clip1_3162_101)">
<line x1="30.8047" y1="630" x2="30.8047" stroke="white" stroke-width="0.5"/>
<line x1="101.861" y1="630" x2="101.861" stroke="white" stroke-width="0.5"/>
<line x1="172.916" y1="630" x2="172.916" stroke="white" stroke-width="0.5"/>
<line x1="243.973" y1="630" x2="243.973" stroke="white" stroke-width="0.5"/>
<line x1="315.027" y1="630" x2="315.027" stroke="white" stroke-width="0.5"/>
<line x1="386.084" y1="630" x2="386.084" stroke="white" stroke-width="0.5"/>
<line x1="457.139" y1="630" x2="457.139" stroke="white" stroke-width="0.5"/>
<line x1="528.195" y1="630" x2="528.195" stroke="white" stroke-width="0.5"/>
<line x1="599.25" y1="630" x2="599.25" stroke="white" stroke-width="0.5"/>
<line x1="670.305" y1="630" x2="670.305" stroke="white" stroke-width="0.5"/>
<line x1="741.361" y1="630" x2="741.361" stroke="white" stroke-width="0.5"/>
<line x1="812.416" y1="630" x2="812.416" stroke="white" stroke-width="0.5"/>
<line x1="883.473" y1="630" x2="883.473" stroke="white" stroke-width="0.5"/>
<line x1="954.527" y1="630" x2="954.527" stroke="white" stroke-width="0.5"/>
<line x1="1025.58" y1="630" x2="1025.58" stroke="white" stroke-width="0.5"/>
<line x1="1096.64" y1="630" x2="1096.64" stroke="white" stroke-width="0.5"/>
<line x1="1167.7" y1="630" x2="1167.7" stroke="white" stroke-width="0.5"/>
<line x1="-40" y1="62.75" x2="1239" y2="62.75" stroke="white" stroke-width="0.5"/>
<line x1="-40" y1="125.75" x2="1239" y2="125.75" stroke="white" stroke-width="0.5"/>
<line x1="-40" y1="188.75" x2="1239" y2="188.75" stroke="white" stroke-width="0.5"/>
<line x1="-40" y1="251.75" x2="1239" y2="251.75" stroke="white" stroke-width="0.5"/>
<line x1="-40" y1="314.75" x2="1239" y2="314.75" stroke="white" stroke-width="0.5"/>
<line x1="-40" y1="377.75" x2="1239" y2="377.75" stroke="white" stroke-width="0.5"/>
<line x1="-40" y1="440.75" x2="1239" y2="440.75" stroke="white" stroke-width="0.5"/>
<line x1="-40" y1="503.75" x2="1239" y2="503.75" stroke="white" stroke-width="0.5"/>
<line x1="-40" y1="566.75" x2="1239" y2="566.75" stroke="white" stroke-width="0.5"/>
<line x1="-40" y1="629.75" x2="1239" y2="629.75" stroke="white" stroke-width="0.5"/>
</g>
<rect x="1200" y="630" width="1200" height="630" transform="rotate(180 1200 630)" fill="url(#paint0_radial_3162_101)"/>
<rect width="1200" height="630" fill="url(#paint1_radial_3162_101)"/>
<path d="M325.405 310H297.802V228.545H325.961C334.049 228.545 340.996 230.176 346.802 233.438C352.636 236.672 357.117 241.326 360.246 247.398C363.374 253.47 364.939 260.735 364.939 269.193C364.939 277.678 363.361 284.97 360.206 291.068C357.077 297.167 352.556 301.847 346.643 305.108C340.757 308.369 333.677 310 325.405 310ZM312.558 297.233H324.689C330.363 297.233 335.096 296.199 338.888 294.131C342.679 292.036 345.53 288.92 347.439 284.784C349.348 280.621 350.302 275.424 350.302 269.193C350.302 262.962 349.348 257.792 347.439 253.682C345.53 249.545 342.706 246.456 338.967 244.415C335.255 242.347 330.641 241.312 325.126 241.312H312.558V297.233ZM400.888 311.193C394.763 311.193 389.473 309.92 385.018 307.375C380.59 304.803 377.183 301.17 374.797 296.477C372.41 291.758 371.217 286.203 371.217 279.812C371.217 273.528 372.41 268.013 374.797 263.267C377.21 258.494 380.577 254.782 384.899 252.131C389.221 249.453 394.299 248.114 400.132 248.114C403.897 248.114 407.45 248.723 410.791 249.943C414.159 251.136 417.128 252.992 419.7 255.511C422.299 258.03 424.34 261.239 425.825 265.136C427.31 269.008 428.052 273.621 428.052 278.977V283.392H377.979V273.688H414.251C414.225 270.93 413.628 268.477 412.462 266.33C411.295 264.155 409.664 262.445 407.569 261.199C405.501 259.953 403.088 259.33 400.331 259.33C397.388 259.33 394.802 260.045 392.575 261.477C390.348 262.883 388.611 264.739 387.365 267.045C386.145 269.326 385.522 271.831 385.496 274.562V283.034C385.496 286.587 386.145 289.636 387.444 292.182C388.744 294.701 390.56 296.636 392.893 297.989C395.227 299.314 397.958 299.977 401.087 299.977C403.181 299.977 405.077 299.686 406.774 299.102C408.471 298.492 409.943 297.604 411.189 296.438C412.435 295.271 413.376 293.826 414.013 292.102L427.456 293.614C426.607 297.167 424.99 300.269 422.604 302.92C420.244 305.545 417.221 307.587 413.535 309.045C409.85 310.477 405.634 311.193 400.888 311.193ZM394.206 240.875L403.115 222.699H417.194L404.984 240.875H394.206ZM488.571 248.909L466.815 310H450.906L429.151 248.909H444.503L458.543 294.29H459.179L473.259 248.909H488.571ZM519.021 311.193C512.896 311.193 507.607 309.92 503.152 307.375C498.724 304.803 495.317 301.17 492.931 296.477C490.544 291.758 489.351 286.203 489.351 279.812C489.351 273.528 490.544 268.013 492.931 263.267C495.343 258.494 498.711 254.782 503.033 252.131C507.355 249.453 512.432 248.114 518.266 248.114C522.031 248.114 525.584 248.723 528.925 249.943C532.292 251.136 535.262 252.992 537.834 255.511C540.432 258.03 542.474 261.239 543.959 265.136C545.444 269.008 546.186 273.621 546.186 278.977V283.392H496.112V273.688H532.385C532.359 270.93 531.762 268.477 530.595 266.33C529.429 264.155 527.798 262.445 525.703 261.199C523.635 259.953 521.222 259.33 518.465 259.33C515.521 259.33 512.936 260.045 510.709 261.477C508.482 262.883 506.745 264.739 505.499 267.045C504.279 269.326 503.656 271.831 503.629 274.562V283.034C503.629 286.587 504.279 289.636 505.578 292.182C506.877 294.701 508.694 296.636 511.027 297.989C513.36 299.314 516.092 299.977 519.22 299.977C521.315 299.977 523.211 299.686 524.908 299.102C526.605 298.492 528.076 297.604 529.323 296.438C530.569 295.271 531.51 293.826 532.146 292.102L545.59 293.614C544.741 297.167 543.124 300.269 540.737 302.92C538.377 305.545 535.355 307.587 531.669 309.045C527.984 310.477 523.768 311.193 519.021 311.193ZM568.284 228.545V310H553.887V228.545H568.284ZM605.257 311.193C599.292 311.193 594.121 309.881 589.746 307.256C585.371 304.631 581.977 300.958 579.564 296.239C577.178 291.519 575.985 286.004 575.985 279.693C575.985 273.383 577.178 267.854 579.564 263.108C581.977 258.362 585.371 254.676 589.746 252.051C594.121 249.426 599.292 248.114 605.257 248.114C611.223 248.114 616.394 249.426 620.769 252.051C625.144 254.676 628.525 258.362 630.911 263.108C633.324 267.854 634.53 273.383 634.53 279.693C634.53 286.004 633.324 291.519 630.911 296.239C628.525 300.958 625.144 304.631 620.769 307.256C616.394 309.881 611.223 311.193 605.257 311.193ZM605.337 299.659C608.572 299.659 611.276 298.771 613.451 296.994C615.625 295.191 617.242 292.778 618.303 289.756C619.39 286.733 619.934 283.366 619.934 279.653C619.934 275.915 619.39 272.534 618.303 269.511C617.242 266.462 615.625 264.036 613.451 262.233C611.276 260.43 608.572 259.528 605.337 259.528C602.023 259.528 599.265 260.43 597.064 262.233C594.89 264.036 593.259 266.462 592.172 269.511C591.112 272.534 590.581 275.915 590.581 279.653C590.581 283.366 591.112 286.733 592.172 289.756C593.259 292.778 594.89 295.191 597.064 296.994C599.265 298.771 602.023 299.659 605.337 299.659ZM642.27 332.909V248.909H656.429V259.011H657.265C658.007 257.527 659.054 255.949 660.407 254.278C661.759 252.581 663.589 251.136 665.895 249.943C668.202 248.723 671.145 248.114 674.725 248.114C679.445 248.114 683.7 249.32 687.492 251.733C691.31 254.119 694.333 257.659 696.56 262.352C698.814 267.019 699.941 272.746 699.941 279.534C699.941 286.242 698.84 291.943 696.64 296.636C694.439 301.33 691.443 304.909 687.651 307.375C683.859 309.841 679.564 311.074 674.765 311.074C671.265 311.074 668.361 310.491 666.054 309.324C663.748 308.157 661.892 306.752 660.486 305.108C659.107 303.437 658.034 301.86 657.265 300.375H656.668V332.909H642.27ZM656.39 279.455C656.39 283.405 656.946 286.866 658.06 289.835C659.2 292.805 660.831 295.125 662.952 296.795C665.1 298.439 667.698 299.261 670.748 299.261C673.929 299.261 676.594 298.413 678.742 296.716C680.89 294.992 682.507 292.646 683.594 289.676C684.708 286.68 685.265 283.273 685.265 279.455C685.265 275.663 684.721 272.295 683.634 269.352C682.547 266.409 680.929 264.102 678.782 262.432C676.634 260.761 673.956 259.926 670.748 259.926C667.672 259.926 665.06 260.735 662.912 262.352C660.765 263.97 659.134 266.237 658.02 269.153C656.933 272.07 656.39 275.504 656.39 279.455ZM707.79 332.909V248.909H721.949V259.011H722.785C723.527 257.527 724.574 255.949 725.927 254.278C727.279 252.581 729.109 251.136 731.415 249.943C733.722 248.723 736.665 248.114 740.245 248.114C744.965 248.114 749.22 249.32 753.012 251.733C756.83 254.119 759.853 257.659 762.08 262.352C764.334 267.019 765.461 272.746 765.461 279.534C765.461 286.242 764.36 291.943 762.16 296.636C759.959 301.33 756.963 304.909 753.171 307.375C749.379 309.841 745.084 311.074 740.285 311.074C736.785 311.074 733.881 310.491 731.574 309.324C729.268 308.157 727.412 306.752 726.006 305.108C724.627 303.437 723.554 301.86 722.785 300.375H722.188V332.909H707.79ZM721.91 279.455C721.91 283.405 722.467 286.866 723.58 289.835C724.72 292.805 726.351 295.125 728.472 296.795C730.62 298.439 733.218 299.261 736.268 299.261C739.449 299.261 742.114 298.413 744.262 296.716C746.41 294.992 748.027 292.646 749.114 289.676C750.228 286.68 750.785 283.273 750.785 279.455C750.785 275.663 750.241 272.295 749.154 269.352C748.067 266.409 746.449 264.102 744.302 262.432C742.154 260.761 739.476 259.926 736.268 259.926C733.192 259.926 730.58 260.735 728.432 262.352C726.285 263.97 724.654 266.237 723.54 269.153C722.453 272.07 721.91 275.504 721.91 279.455ZM800.356 311.193C794.231 311.193 788.941 309.92 784.486 307.375C780.058 304.803 776.651 301.17 774.265 296.477C771.879 291.758 770.685 286.203 770.685 279.812C770.685 273.528 771.879 268.013 774.265 263.267C776.678 258.494 780.045 254.782 784.367 252.131C788.689 249.453 793.767 248.114 799.6 248.114C803.365 248.114 806.918 248.723 810.259 249.943C813.627 251.136 816.596 252.992 819.168 255.511C821.767 258.03 823.808 261.239 825.293 265.136C826.778 269.008 827.521 273.621 827.521 278.977V283.392H777.447V273.688H813.719C813.693 270.93 813.096 268.477 811.93 266.33C810.763 264.155 809.132 262.445 807.038 261.199C804.969 259.953 802.557 259.33 799.799 259.33C796.856 259.33 794.271 260.045 792.043 261.477C789.816 262.883 788.079 264.739 786.833 267.045C785.613 269.326 784.99 271.831 784.964 274.562V283.034C784.964 286.587 785.613 289.636 786.913 292.182C788.212 294.701 790.028 296.636 792.361 297.989C794.695 299.314 797.426 299.977 800.555 299.977C802.649 299.977 804.545 299.686 806.242 299.102C807.939 298.492 809.411 297.604 810.657 296.438C811.903 295.271 812.844 293.826 813.481 292.102L826.924 293.614C826.076 297.167 824.458 300.269 822.072 302.92C819.712 305.545 816.689 307.587 813.004 309.045C809.318 310.477 805.102 311.193 800.356 311.193ZM874.158 284.307V248.909H888.556V310H874.596V299.142H873.96C872.581 302.562 870.314 305.36 867.158 307.534C864.03 309.708 860.172 310.795 855.585 310.795C851.581 310.795 848.041 309.907 844.965 308.131C841.916 306.328 839.53 303.716 837.806 300.295C836.083 296.848 835.221 292.686 835.221 287.807V248.909H849.619V285.58C849.619 289.451 850.679 292.527 852.801 294.807C854.922 297.087 857.706 298.227 861.153 298.227C863.274 298.227 865.329 297.71 867.318 296.676C869.306 295.642 870.937 294.104 872.21 292.062C873.509 289.994 874.158 287.409 874.158 284.307ZM898.882 310V248.909H912.842V259.091H913.478C914.592 255.564 916.501 252.847 919.205 250.938C921.937 249.002 925.052 248.034 928.552 248.034C929.348 248.034 930.236 248.074 931.217 248.153C932.224 248.206 933.06 248.299 933.723 248.432V261.676C933.113 261.464 932.145 261.278 930.819 261.119C929.52 260.934 928.26 260.841 927.041 260.841C924.416 260.841 922.056 261.411 919.961 262.551C917.893 263.665 916.262 265.216 915.069 267.205C913.876 269.193 913.279 271.487 913.279 274.085V310H898.882ZM378.961 422V340.545H431.143V352.915H393.716V375.028H427.563V387.398H393.716V422H378.961ZM474.579 396.307V360.909H488.977V422H475.016V411.142H474.38C473.001 414.562 470.734 417.36 467.579 419.534C464.45 421.708 460.592 422.795 456.005 422.795C452.001 422.795 448.461 421.907 445.386 420.131C442.336 418.328 439.95 415.716 438.227 412.295C436.503 408.848 435.641 404.686 435.641 399.807V360.909H450.039V397.58C450.039 401.451 451.1 404.527 453.221 406.807C455.342 409.087 458.126 410.227 461.573 410.227C463.694 410.227 465.749 409.71 467.738 408.676C469.727 407.642 471.357 406.104 472.63 404.062C473.929 401.994 474.579 399.409 474.579 396.307ZM513.7 340.545V422H499.302V340.545H513.7ZM538.423 340.545V422H524.025V340.545H538.423ZM616.953 362.938C616.582 359.464 615.017 356.759 612.26 354.824C609.529 352.888 605.976 351.92 601.601 351.92C598.525 351.92 595.887 352.384 593.686 353.312C591.485 354.241 589.801 355.5 588.635 357.091C587.468 358.682 586.871 360.498 586.845 362.54C586.845 364.237 587.229 365.708 587.998 366.955C588.794 368.201 589.868 369.261 591.22 370.136C592.572 370.985 594.07 371.701 595.714 372.284C597.358 372.867 599.015 373.358 600.686 373.756L608.322 375.665C611.398 376.381 614.354 377.348 617.191 378.568C620.055 379.788 622.614 381.326 624.868 383.182C627.148 385.038 628.951 387.278 630.277 389.903C631.602 392.528 632.265 395.604 632.265 399.131C632.265 403.903 631.046 408.106 628.606 411.739C626.167 415.345 622.64 418.169 618.027 420.21C613.44 422.225 607.885 423.233 601.362 423.233C595.025 423.233 589.523 422.252 584.856 420.29C580.216 418.328 576.583 415.464 573.958 411.699C571.36 407.934 569.955 403.347 569.743 397.938H584.26C584.472 400.775 585.347 403.134 586.885 405.017C588.423 406.9 590.424 408.305 592.89 409.233C595.383 410.161 598.167 410.625 601.243 410.625C604.451 410.625 607.262 410.148 609.674 409.193C612.114 408.212 614.023 406.86 615.402 405.136C616.78 403.386 617.483 401.345 617.51 399.011C617.483 396.89 616.86 395.14 615.64 393.761C614.421 392.356 612.71 391.189 610.51 390.261C608.335 389.307 605.79 388.458 602.873 387.716L593.606 385.33C586.898 383.606 581.595 380.994 577.697 377.494C573.826 373.968 571.89 369.288 571.89 363.455C571.89 358.655 573.19 354.453 575.788 350.847C578.413 347.241 581.979 344.443 586.487 342.455C590.994 340.439 596.099 339.432 601.799 339.432C607.58 339.432 612.644 340.439 616.993 342.455C621.368 344.443 624.801 347.214 627.294 350.767C629.786 354.294 631.072 358.35 631.152 362.938H616.953ZM670.809 360.909V372.045H635.69V360.909H670.809ZM644.361 346.273H658.758V403.625C658.758 405.561 659.05 407.045 659.633 408.08C660.243 409.087 661.039 409.777 662.02 410.148C663.001 410.519 664.088 410.705 665.281 410.705C666.183 410.705 667.005 410.638 667.747 410.506C668.516 410.373 669.099 410.254 669.497 410.148L671.923 421.403C671.154 421.669 670.054 421.96 668.622 422.278C667.217 422.597 665.493 422.782 663.451 422.835C659.845 422.941 656.597 422.398 653.707 421.205C650.817 419.985 648.523 418.102 646.826 415.557C645.156 413.011 644.334 409.83 644.361 406.011V346.273ZM695.95 423.233C692.079 423.233 688.592 422.544 685.49 421.165C682.414 419.759 679.975 417.691 678.172 414.96C676.395 412.229 675.507 408.862 675.507 404.858C675.507 401.411 676.143 398.561 677.416 396.307C678.689 394.053 680.426 392.25 682.626 390.898C684.827 389.545 687.306 388.525 690.064 387.835C692.848 387.119 695.725 386.602 698.695 386.284C702.274 385.913 705.177 385.581 707.405 385.29C709.632 384.972 711.249 384.494 712.257 383.858C713.291 383.195 713.808 382.174 713.808 380.795V380.557C713.808 377.561 712.92 375.241 711.143 373.597C709.367 371.953 706.808 371.131 703.467 371.131C699.941 371.131 697.143 371.9 695.075 373.438C693.034 374.975 691.655 376.792 690.939 378.886L677.496 376.977C678.556 373.265 680.306 370.163 682.746 367.67C685.185 365.152 688.168 363.269 691.695 362.023C695.221 360.75 699.119 360.114 703.388 360.114C706.331 360.114 709.261 360.458 712.177 361.148C715.094 361.837 717.759 362.977 720.172 364.568C722.585 366.133 724.52 368.267 725.979 370.972C727.463 373.676 728.206 377.057 728.206 381.114V422H714.365V413.608H713.888C713.013 415.305 711.78 416.896 710.189 418.381C708.624 419.839 706.649 421.019 704.263 421.92C701.903 422.795 699.132 423.233 695.95 423.233ZM699.689 412.653C702.579 412.653 705.085 412.083 707.206 410.943C709.327 409.777 710.958 408.239 712.098 406.33C713.265 404.42 713.848 402.339 713.848 400.085V392.886C713.397 393.258 712.628 393.602 711.541 393.92C710.481 394.239 709.287 394.517 707.962 394.756C706.636 394.994 705.323 395.206 704.024 395.392C702.725 395.578 701.598 395.737 700.643 395.869C698.496 396.161 696.573 396.638 694.876 397.301C693.179 397.964 691.84 398.892 690.859 400.085C689.878 401.252 689.388 402.763 689.388 404.619C689.388 407.271 690.356 409.273 692.291 410.625C694.227 411.977 696.693 412.653 699.689 412.653ZM764.851 423.193C758.752 423.193 753.516 421.854 749.141 419.176C744.792 416.498 741.438 412.799 739.078 408.08C736.745 403.333 735.578 397.871 735.578 391.693C735.578 385.489 736.771 380.013 739.158 375.267C741.544 370.494 744.911 366.782 749.26 364.131C753.635 361.453 758.805 360.114 764.771 360.114C769.73 360.114 774.118 361.028 777.936 362.858C781.781 364.661 784.843 367.22 787.124 370.534C789.404 373.822 790.703 377.667 791.021 382.068H777.26C776.703 379.125 775.377 376.672 773.283 374.71C771.215 372.722 768.444 371.727 764.97 371.727C762.027 371.727 759.442 372.523 757.215 374.114C754.987 375.678 753.25 377.932 752.004 380.875C750.785 383.818 750.175 387.345 750.175 391.455C750.175 395.617 750.785 399.197 752.004 402.193C753.224 405.163 754.934 407.456 757.135 409.074C759.362 410.665 761.974 411.46 764.97 411.46C767.091 411.46 768.987 411.062 770.658 410.267C772.355 409.445 773.773 408.265 774.913 406.727C776.054 405.189 776.836 403.32 777.26 401.119H791.021C790.677 405.441 789.404 409.273 787.203 412.614C785.002 415.928 782.006 418.527 778.215 420.409C774.423 422.265 769.968 423.193 764.851 423.193ZM811.489 402.83L811.449 385.449H813.756L835.71 360.909H852.534L825.529 390.977H822.546L811.489 402.83ZM798.364 422V340.545H812.762V422H798.364ZM836.705 422L816.818 394.199L826.523 384.057L853.926 422H836.705Z" fill="url(#paint2_linear_3162_101)"/>
<g clip-path="url(#clip2_3162_101)">
<path d="M511.784 129.46L510.523 129.468C510.361 130 509.991 130.846 509.403 131.982C508.822 133.126 508.268 133.981 507.73 134.543C507.533 134.758 507.193 134.922 506.728 135.044C506.255 135.175 495.915 135.17 495.759 135.164L495.651 132.26C495.642 131.829 495.64 131.32 495.634 130.715L495.623 128.808C495.623 128.377 495.69 128.007 495.837 127.686C495.976 127.366 496.224 127.119 496.569 126.946C496.859 126.801 497.235 126.695 497.702 126.615C498.17 126.542 498.546 126.481 498.822 126.445L498.813 125.184L488.028 125.245L488.037 126.506C488.404 126.531 488.916 126.578 489.568 126.659C490.219 126.748 490.737 126.871 491.121 127.046C491.539 127.213 491.817 127.489 491.954 127.865C492.084 128.24 492.157 128.672 492.16 129.154L492.168 130.507C492.168 130.933 492.168 131.456 492.168 132.066C492.165 132.681 492.118 133.291 492.029 133.886C491.684 134.237 491.091 134.571 490.255 134.889C489.415 135.206 488.488 135.365 487.466 135.373C486.099 135.381 484.877 135.089 483.797 134.507C482.716 133.925 481.812 133.124 481.091 132.091C480.369 131.088 479.81 129.894 479.426 128.516C479.042 127.135 478.849 125.662 478.841 124.103C478.83 122.333 479.086 120.746 479.387 119.29C480.679 113.04 489.632 112.87 491.814 112.787L491.876 123.678C492.413 123.639 493.334 123.619 494.164 123.616C494.802 123.605 495.383 123.611 495.667 123.608L496.625 123.602C497.382 123.597 497.992 123.666 498.454 123.806C498.916 123.936 499.328 124.232 499.693 124.691C499.913 124.967 500.13 125.418 500.339 126.041C500.548 126.665 500.679 127.258 500.723 127.817L502.04 127.809L501.984 118.073L500.667 118.082C500.614 118.586 500.495 119.117 500.322 119.685C500.141 120.253 499.924 120.707 499.671 121.041C499.362 121.448 498.994 121.732 498.585 121.899C498.167 122.071 497.51 122.16 496.617 122.166L495.69 122.171C495.612 119.502 495.545 112.77 495.545 112.77C502.633 112.99 506.784 115.103 507.694 115.999C507.808 116.114 507.908 116.225 507.986 116.322C508.565 117.049 509.03 117.867 509.395 118.789C509.754 119.708 510.063 120.64 510.311 121.581L511.736 121.573L511.533 112.97L510.144 112.979L509.434 114.165C503.017 109.507 489.203 110.409 484.59 111.553C482.474 112.077 480.517 112.923 478.816 114.284C478.563 114.49 478.329 114.699 478.148 114.891C477.02 116.08 476.157 117.475 475.542 119.078C474.935 120.69 474.632 122.428 474.643 124.298C474.654 126.247 474.991 128.001 475.642 129.571C476.302 131.141 477.182 132.475 478.287 133.566C479.378 134.644 480.659 135.482 482.121 136.061C483.577 136.64 485.094 136.929 486.667 136.921L511.347 136.782L511.781 129.46H511.784Z" fill="url(#paint3_linear_3162_101)"/>
<path d="M516.232 140.807C518.935 134.29 519.595 127.199 518.139 120.295L518.033 119.8C516.903 114.443 517.162 108.847 518.78 103.619L523 90L521.7 90.0084C520.87 90.0139 501.633 90.1782 493.014 95.1698C483.512 90.2812 465.107 90.3257 464.317 90.3313L463 90.3396L467.449 103.614C469.261 109.02 469.606 114.827 468.445 120.409C467.001 127.366 467.699 134.502 470.472 141.047C473.242 147.589 477.88 153.06 483.883 156.862L493.418 162.904L503.056 156.645C508.972 152.803 513.529 147.327 516.232 140.813V140.807ZM502.017 155.045L493.404 160.638L484.901 155.251C479.228 151.656 474.843 146.487 472.226 140.301C469.606 134.115 468.944 127.369 470.311 120.793C471.538 114.883 471.174 108.731 469.256 103.007L465.65 92.2494C470.158 92.3357 485.041 92.9371 492.582 97.0991L493.075 97.3719L493.551 97.0713C500.274 92.8285 515.803 92.0741 520.405 91.9404L516.964 103.057C515.249 108.594 514.977 114.521 516.174 120.195L516.277 120.69C517.655 127.216 517.031 133.92 514.473 140.078C511.917 146.236 507.61 151.411 502.017 155.045Z" fill="#CA9E5A"/>
</g>
<path d="M535.152 122.45V100.632H543.504C545.081 100.632 546.391 100.881 547.435 101.378C548.487 101.868 549.271 102.539 549.79 103.391C550.315 104.244 550.578 105.209 550.578 106.289C550.578 107.177 550.408 107.937 550.067 108.569C549.726 109.194 549.268 109.702 548.692 110.092C548.117 110.483 547.474 110.763 546.764 110.934V111.147C547.538 111.19 548.281 111.427 548.991 111.861C549.708 112.287 550.294 112.891 550.749 113.672C551.203 114.453 551.43 115.398 551.43 116.506C551.43 117.635 551.157 118.65 550.61 119.552C550.063 120.447 549.239 121.154 548.138 121.672C547.038 122.191 545.653 122.45 543.984 122.45H535.152ZM539.104 119.148H543.355C544.79 119.148 545.823 118.874 546.455 118.327C547.094 117.773 547.414 117.063 547.414 116.197C547.414 115.55 547.254 114.968 546.935 114.449C546.615 113.924 546.161 113.512 545.571 113.214C544.982 112.908 544.278 112.756 543.462 112.756H539.104V119.148ZM539.104 109.911H543.014C543.696 109.911 544.31 109.787 544.857 109.538C545.404 109.283 545.834 108.924 546.146 108.462C546.466 107.994 546.626 107.44 546.626 106.8C546.626 105.955 546.327 105.259 545.731 104.712C545.141 104.165 544.264 103.892 543.099 103.892H539.104V109.911ZM558.207 122.78C557.17 122.78 556.236 122.596 555.405 122.226C554.581 121.85 553.928 121.296 553.445 120.565C552.969 119.833 552.731 118.931 552.731 117.859C552.731 116.935 552.902 116.172 553.243 115.568C553.584 114.964 554.049 114.481 554.638 114.119C555.228 113.757 555.892 113.484 556.63 113.299C557.376 113.107 558.147 112.969 558.942 112.883C559.901 112.784 560.679 112.695 561.275 112.617C561.872 112.532 562.305 112.404 562.575 112.234C562.852 112.056 562.991 111.783 562.991 111.413V111.349C562.991 110.547 562.753 109.925 562.277 109.485C561.801 109.045 561.116 108.824 560.221 108.824C559.276 108.824 558.527 109.03 557.973 109.442C557.426 109.854 557.057 110.341 556.865 110.902L553.264 110.391C553.548 109.396 554.017 108.565 554.67 107.898C555.324 107.223 556.123 106.719 557.067 106.385C558.012 106.044 559.056 105.873 560.199 105.873C560.988 105.873 561.772 105.966 562.554 106.15C563.335 106.335 564.049 106.641 564.695 107.067C565.341 107.486 565.86 108.057 566.25 108.782C566.648 109.506 566.847 110.412 566.847 111.498V122.45H563.14V120.202H563.012C562.777 120.657 562.447 121.083 562.021 121.481C561.602 121.871 561.073 122.187 560.434 122.429C559.802 122.663 559.059 122.78 558.207 122.78ZM559.209 119.947C559.983 119.947 560.654 119.794 561.222 119.489C561.79 119.176 562.227 118.764 562.532 118.253C562.845 117.741 563.001 117.184 563.001 116.58V114.652C562.88 114.751 562.674 114.844 562.383 114.929C562.099 115.014 561.78 115.089 561.424 115.153C561.069 115.217 560.718 115.273 560.37 115.323C560.022 115.373 559.72 115.415 559.464 115.451C558.889 115.529 558.374 115.657 557.919 115.834C557.465 116.012 557.106 116.261 556.844 116.58C556.581 116.893 556.449 117.297 556.449 117.795C556.449 118.505 556.709 119.041 557.227 119.403C557.745 119.766 558.406 119.947 559.209 119.947ZM569.525 122.45V106.087H573.264V108.814H573.435C573.733 107.869 574.244 107.141 574.969 106.63C575.7 106.111 576.535 105.852 577.472 105.852C577.685 105.852 577.923 105.863 578.186 105.884C578.456 105.898 578.68 105.923 578.857 105.959V109.506C578.694 109.449 578.435 109.4 578.08 109.357C577.732 109.307 577.394 109.283 577.068 109.283C576.364 109.283 575.732 109.435 575.171 109.741C574.617 110.039 574.18 110.454 573.861 110.987C573.541 111.52 573.381 112.134 573.381 112.83V122.45H569.525ZM589.269 106.087V109.07H579.863V106.087H589.269ZM582.185 102.166H586.042V117.528C586.042 118.047 586.12 118.445 586.276 118.722C586.439 118.991 586.652 119.176 586.915 119.275C587.178 119.375 587.469 119.425 587.789 119.425C588.03 119.425 588.25 119.407 588.449 119.371C588.655 119.336 588.811 119.304 588.918 119.275L589.568 122.29C589.362 122.361 589.067 122.44 588.684 122.525C588.307 122.61 587.845 122.66 587.299 122.674C586.333 122.702 585.463 122.557 584.689 122.237C583.914 121.91 583.3 121.406 582.845 120.724C582.398 120.043 582.178 119.19 582.185 118.168V102.166ZM598.257 122.77C596.659 122.77 595.274 122.418 594.102 121.715C592.93 121.012 592.021 120.028 591.375 118.764C590.736 117.5 590.416 116.023 590.416 114.332C590.416 112.642 590.736 111.161 591.375 109.89C592.021 108.619 592.93 107.631 594.102 106.928C595.274 106.225 596.659 105.873 598.257 105.873C599.855 105.873 601.24 106.225 602.412 106.928C603.584 107.631 604.489 108.619 605.128 109.89C605.775 111.161 606.098 112.642 606.098 114.332C606.098 116.023 605.775 117.5 605.128 118.764C604.489 120.028 603.584 121.012 602.412 121.715C601.24 122.418 599.855 122.77 598.257 122.77ZM598.278 119.68C599.145 119.68 599.869 119.442 600.451 118.967C601.034 118.484 601.467 117.837 601.751 117.028C602.042 116.218 602.188 115.316 602.188 114.322C602.188 113.32 602.042 112.415 601.751 111.605C601.467 110.788 601.034 110.138 600.451 109.655C599.869 109.172 599.145 108.931 598.278 108.931C597.39 108.931 596.652 109.172 596.062 109.655C595.48 110.138 595.043 110.788 594.752 111.605C594.468 112.415 594.326 113.32 594.326 114.322C594.326 115.316 594.468 116.218 594.752 117.028C595.043 117.837 595.48 118.484 596.062 118.967C596.652 119.442 597.39 119.68 598.278 119.68ZM621.104 110.412L617.589 110.795C617.489 110.44 617.315 110.106 617.067 109.794C616.825 109.481 616.498 109.229 616.086 109.038C615.675 108.846 615.17 108.75 614.574 108.75C613.771 108.75 613.096 108.924 612.55 109.272C612.01 109.62 611.743 110.071 611.751 110.625C611.743 111.101 611.917 111.488 612.273 111.786C612.635 112.084 613.231 112.329 614.062 112.521L616.854 113.118C618.402 113.452 619.552 113.981 620.305 114.705C621.065 115.43 621.449 116.378 621.456 117.55C621.449 118.579 621.147 119.489 620.55 120.277C619.961 121.058 619.14 121.669 618.089 122.109C617.038 122.55 615.831 122.77 614.467 122.77C612.464 122.77 610.852 122.351 609.631 121.513C608.409 120.668 607.681 119.492 607.447 117.986L611.207 117.624C611.378 118.363 611.74 118.92 612.294 119.297C612.848 119.673 613.569 119.861 614.456 119.861C615.373 119.861 616.108 119.673 616.662 119.297C617.223 118.92 617.503 118.455 617.503 117.901C617.503 117.432 617.322 117.045 616.96 116.74C616.605 116.435 616.051 116.2 615.298 116.037L612.507 115.451C610.937 115.124 609.776 114.574 609.023 113.8C608.27 113.018 607.898 112.031 607.905 110.838C607.898 109.829 608.171 108.956 608.725 108.217C609.286 107.472 610.064 106.896 611.058 106.491C612.059 106.079 613.214 105.873 614.52 105.873C616.438 105.873 617.947 106.282 619.048 107.099C620.156 107.915 620.841 109.02 621.104 110.412ZM623.436 122.45V106.087H627.292V122.45H623.436ZM625.375 103.764C624.764 103.764 624.238 103.562 623.798 103.157C623.358 102.745 623.138 102.251 623.138 101.676C623.138 101.094 623.358 100.6 623.798 100.195C624.238 99.7833 624.764 99.5773 625.375 99.5773C625.993 99.5773 626.518 99.7833 626.951 100.195C627.392 100.6 627.612 101.094 627.612 101.676C627.612 102.251 627.392 102.745 626.951 103.157C626.518 103.562 625.993 103.764 625.375 103.764ZM633.574 117.315L633.563 112.66H634.181L640.062 106.087H644.568L637.334 114.141H636.535L633.574 117.315ZM630.058 122.45V100.632H633.915V122.45H630.058ZM640.328 122.45L635.001 115.003L637.601 112.287L644.941 122.45H640.328ZM535.152 152.45V130.632H543.334C545.01 130.632 546.416 130.945 547.553 131.57C548.696 132.195 549.559 133.054 550.141 134.148C550.731 135.234 551.026 136.47 551.026 137.855C551.026 139.254 550.731 140.497 550.141 141.584C549.552 142.67 548.682 143.526 547.531 144.151C546.381 144.769 544.964 145.078 543.281 145.078H537.858V141.829H542.748C543.728 141.829 544.531 141.658 545.156 141.317C545.781 140.976 546.242 140.508 546.54 139.911C546.846 139.315 546.999 138.629 546.999 137.855C546.999 137.081 546.846 136.399 546.54 135.81C546.242 135.22 545.777 134.762 545.145 134.435C544.52 134.101 543.714 133.935 542.727 133.935H539.104V152.45H535.152ZM557.504 152.78C556.467 152.78 555.533 152.596 554.702 152.226C553.878 151.85 553.225 151.296 552.742 150.565C552.266 149.833 552.028 148.931 552.028 147.859C552.028 146.935 552.199 146.172 552.54 145.568C552.88 144.964 553.346 144.481 553.935 144.119C554.525 143.757 555.189 143.484 555.927 143.299C556.673 143.107 557.444 142.969 558.239 142.883C559.198 142.784 559.976 142.695 560.572 142.617C561.169 142.532 561.602 142.404 561.872 142.234C562.149 142.056 562.287 141.783 562.287 141.413V141.349C562.287 140.547 562.049 139.925 561.574 139.485C561.098 139.045 560.412 138.824 559.518 138.824C558.573 138.824 557.824 139.03 557.27 139.442C556.723 139.854 556.353 140.341 556.162 140.902L552.561 140.391C552.845 139.396 553.314 138.565 553.967 137.898C554.62 137.223 555.419 136.719 556.364 136.385C557.309 136.044 558.353 135.873 559.496 135.873C560.285 135.873 561.069 135.966 561.851 136.15C562.632 136.335 563.346 136.641 563.992 137.067C564.638 137.486 565.157 138.057 565.547 138.782C565.945 139.506 566.144 140.412 566.144 141.498V152.45H562.437V150.202H562.309C562.074 150.657 561.744 151.083 561.318 151.481C560.899 151.871 560.37 152.187 559.731 152.429C559.098 152.663 558.356 152.78 557.504 152.78ZM558.505 149.947C559.28 149.947 559.951 149.794 560.519 149.489C561.087 149.176 561.524 148.764 561.829 148.253C562.142 147.741 562.298 147.184 562.298 146.58V144.652C562.177 144.751 561.971 144.844 561.68 144.929C561.396 145.014 561.076 145.089 560.721 145.153C560.366 145.217 560.015 145.273 559.667 145.323C559.319 145.373 559.017 145.415 558.761 145.451C558.186 145.529 557.671 145.657 557.216 145.834C556.762 146.012 556.403 146.261 556.14 146.58C555.878 146.893 555.746 147.297 555.746 147.795C555.746 148.505 556.005 149.041 556.524 149.403C557.042 149.766 557.703 149.947 558.505 149.947ZM576.993 136.087V139.07H567.586V136.087H576.993ZM569.908 132.166H573.765V147.528C573.765 148.047 573.843 148.445 573.999 148.722C574.163 148.991 574.376 149.176 574.639 149.275C574.901 149.375 575.193 149.425 575.512 149.425C575.754 149.425 575.974 149.407 576.173 149.371C576.379 149.336 576.535 149.304 576.641 149.275L577.291 152.29C577.085 152.361 576.791 152.44 576.407 152.525C576.031 152.61 575.569 152.66 575.022 152.674C574.056 152.702 573.186 152.557 572.412 152.237C571.638 151.91 571.023 151.406 570.569 150.724C570.121 150.043 569.901 149.19 569.908 148.168V132.166ZM579.018 152.45V136.087H582.758V138.814H582.928C583.226 137.869 583.738 137.141 584.462 136.63C585.194 136.111 586.028 135.852 586.966 135.852C587.179 135.852 587.417 135.863 587.679 135.884C587.949 135.898 588.173 135.923 588.351 135.959V139.506C588.187 139.449 587.928 139.4 587.573 139.357C587.225 139.307 586.888 139.283 586.561 139.283C585.858 139.283 585.226 139.435 584.665 139.741C584.111 140.039 583.674 140.454 583.354 140.987C583.035 141.52 582.875 142.134 582.875 142.83V152.45H579.018ZM589.713 152.45V136.087H593.569V152.45H589.713ZM591.652 133.764C591.041 133.764 590.515 133.562 590.075 133.157C589.635 132.745 589.414 132.251 589.414 131.676C589.414 131.094 589.635 130.6 590.075 130.195C590.515 129.783 591.041 129.577 591.652 129.577C592.27 129.577 592.795 129.783 593.228 130.195C593.669 130.6 593.889 131.094 593.889 131.676C593.889 132.251 593.669 132.745 593.228 133.157C592.795 133.562 592.27 133.764 591.652 133.764ZM603.473 152.77C601.839 152.77 600.437 152.411 599.265 151.694C598.1 150.976 597.202 149.986 596.569 148.722C595.944 147.45 595.632 145.987 595.632 144.332C595.632 142.67 595.952 141.204 596.591 139.932C597.23 138.654 598.132 137.66 599.297 136.949C600.469 136.232 601.854 135.873 603.452 135.873C604.78 135.873 605.955 136.119 606.978 136.609C608.008 137.092 608.828 137.777 609.439 138.665C610.05 139.545 610.398 140.575 610.483 141.754H606.797C606.648 140.966 606.292 140.309 605.731 139.783C605.177 139.251 604.435 138.984 603.505 138.984C602.716 138.984 602.024 139.197 601.427 139.623C600.831 140.043 600.366 140.646 600.032 141.435C599.705 142.223 599.542 143.168 599.542 144.268C599.542 145.383 599.705 146.342 600.032 147.145C600.358 147.94 600.817 148.555 601.406 148.988C602.003 149.414 602.702 149.627 603.505 149.627C604.073 149.627 604.581 149.521 605.028 149.307C605.483 149.087 605.863 148.771 606.168 148.359C606.474 147.947 606.683 147.447 606.797 146.857H610.483C610.39 148.015 610.05 149.041 609.46 149.936C608.871 150.824 608.068 151.52 607.052 152.024C606.037 152.521 604.844 152.77 603.473 152.77ZM615.965 147.315L615.954 142.66H616.572L622.453 136.087H626.959L619.726 144.141H618.927L615.965 147.315ZM612.45 152.45V130.632H616.306V152.45H612.45ZM622.719 152.45L617.393 145.003L619.992 142.287L627.332 152.45H622.719Z" fill="url(#paint4_linear_3162_101)"/>
<path d="M442.991 553.182V523.182H448.048V526.79H448.346C448.612 526.259 448.986 525.696 449.469 525.099C449.951 524.493 450.605 523.977 451.429 523.551C452.253 523.116 453.304 522.898 454.582 522.898C456.268 522.898 457.788 523.329 459.142 524.19C460.505 525.043 461.585 526.307 462.38 527.983C463.185 529.65 463.588 531.695 463.588 534.119C463.588 536.515 463.195 538.551 462.409 540.227C461.623 541.903 460.553 543.182 459.199 544.062C457.844 544.943 456.31 545.384 454.596 545.384C453.346 545.384 452.309 545.175 451.486 544.759C450.662 544.342 449.999 543.84 449.497 543.253C449.005 542.656 448.621 542.093 448.346 541.562H448.133V553.182H442.991ZM448.034 534.091C448.034 535.502 448.233 536.738 448.63 537.798C449.038 538.859 449.62 539.687 450.378 540.284C451.145 540.871 452.073 541.165 453.162 541.165C454.298 541.165 455.25 540.862 456.017 540.256C456.784 539.64 457.362 538.802 457.75 537.741C458.148 536.671 458.346 535.455 458.346 534.091C458.346 532.737 458.152 531.534 457.764 530.483C457.376 529.432 456.798 528.608 456.031 528.011C455.264 527.415 454.308 527.116 453.162 527.116C452.063 527.116 451.13 527.405 450.363 527.983C449.596 528.561 449.014 529.37 448.616 530.412C448.228 531.454 448.034 532.68 448.034 534.091ZM472.67 545.44C471.287 545.44 470.042 545.194 468.934 544.702C467.835 544.2 466.964 543.461 466.32 542.486C465.686 541.51 465.369 540.308 465.369 538.878C465.369 537.647 465.596 536.629 466.05 535.824C466.505 535.019 467.125 534.375 467.911 533.892C468.697 533.409 469.583 533.045 470.567 532.798C471.562 532.543 472.589 532.358 473.65 532.244C474.928 532.112 475.965 531.993 476.761 531.889C477.556 531.776 478.134 531.605 478.494 531.378C478.863 531.141 479.048 530.777 479.048 530.284V530.199C479.048 529.129 478.73 528.3 478.096 527.713C477.461 527.126 476.548 526.832 475.354 526.832C474.095 526.832 473.096 527.107 472.357 527.656C471.628 528.205 471.136 528.854 470.88 529.602L466.079 528.92C466.458 527.595 467.083 526.487 467.954 525.597C468.825 524.697 469.89 524.025 471.15 523.58C472.409 523.125 473.801 522.898 475.326 522.898C476.377 522.898 477.423 523.021 478.465 523.267C479.507 523.513 480.458 523.92 481.32 524.489C482.182 525.047 482.873 525.81 483.394 526.776C483.924 527.741 484.19 528.949 484.19 530.398V545H479.246V542.003H479.076C478.763 542.609 478.323 543.177 477.755 543.707C477.196 544.228 476.491 544.65 475.638 544.972C474.796 545.284 473.806 545.44 472.67 545.44ZM474.005 541.662C475.037 541.662 475.932 541.458 476.69 541.051C477.447 540.634 478.03 540.085 478.437 539.403C478.853 538.722 479.062 537.978 479.062 537.173V534.602C478.901 534.735 478.626 534.858 478.238 534.972C477.859 535.085 477.433 535.185 476.959 535.27C476.486 535.355 476.017 535.431 475.553 535.497C475.089 535.563 474.687 535.62 474.346 535.668C473.579 535.772 472.892 535.942 472.286 536.179C471.68 536.416 471.202 536.747 470.851 537.173C470.501 537.59 470.326 538.13 470.326 538.793C470.326 539.74 470.672 540.455 471.363 540.938C472.054 541.42 472.935 541.662 474.005 541.662ZM498.655 523.182V527.159H486.112V523.182H498.655ZM489.209 517.955H494.351V538.438C494.351 539.129 494.455 539.659 494.663 540.028C494.881 540.388 495.165 540.634 495.516 540.767C495.866 540.9 496.254 540.966 496.68 540.966C497.002 540.966 497.296 540.942 497.561 540.895C497.836 540.848 498.044 540.805 498.186 540.767L499.053 544.787C498.778 544.882 498.385 544.986 497.874 545.099C497.372 545.213 496.756 545.279 496.027 545.298C494.739 545.336 493.579 545.142 492.547 544.716C491.515 544.28 490.696 543.608 490.09 542.699C489.493 541.79 489.199 540.653 489.209 539.29V517.955ZM501.355 545V523.182H506.341V526.818H506.568C506.966 525.559 507.648 524.588 508.614 523.906C509.589 523.215 510.702 522.869 511.952 522.869C512.236 522.869 512.553 522.884 512.904 522.912C513.263 522.931 513.562 522.964 513.799 523.011V527.741C513.581 527.666 513.235 527.599 512.762 527.543C512.298 527.476 511.848 527.443 511.412 527.443C510.475 527.443 509.632 527.647 508.884 528.054C508.145 528.452 507.563 529.006 507.137 529.716C506.71 530.426 506.497 531.245 506.497 532.173V545H501.355ZM515.615 545V523.182H520.757V545H515.615ZM518.2 520.085C517.386 520.085 516.685 519.815 516.098 519.276C515.511 518.726 515.217 518.068 515.217 517.301C515.217 516.525 515.511 515.866 516.098 515.327C516.685 514.777 517.386 514.503 518.2 514.503C519.024 514.503 519.725 514.777 520.302 515.327C520.889 515.866 521.183 516.525 521.183 517.301C521.183 518.068 520.889 518.726 520.302 519.276C519.725 519.815 519.024 520.085 518.2 520.085ZM533.961 545.426C531.783 545.426 529.913 544.948 528.351 543.991C526.798 543.035 525.6 541.714 524.757 540.028C523.924 538.333 523.507 536.383 523.507 534.176C523.507 531.96 523.933 530.005 524.785 528.31C525.638 526.605 526.84 525.279 528.393 524.332C529.956 523.376 531.802 522.898 533.933 522.898C535.704 522.898 537.271 523.224 538.635 523.878C540.008 524.522 541.102 525.436 541.916 526.619C542.73 527.794 543.194 529.167 543.308 530.739H538.393C538.194 529.687 537.721 528.812 536.973 528.111C536.234 527.401 535.245 527.045 534.004 527.045C532.953 527.045 532.03 527.33 531.234 527.898C530.439 528.456 529.818 529.261 529.373 530.312C528.938 531.364 528.72 532.623 528.72 534.091C528.72 535.578 528.938 536.856 529.373 537.926C529.809 538.987 530.42 539.806 531.206 540.384C532.001 540.952 532.934 541.236 534.004 541.236C534.762 541.236 535.439 541.094 536.035 540.81C536.641 540.516 537.148 540.095 537.555 539.545C537.962 538.996 538.242 538.329 538.393 537.543H543.308C543.185 539.086 542.73 540.455 541.944 541.648C541.158 542.831 540.088 543.759 538.734 544.432C537.38 545.095 535.789 545.426 533.961 545.426ZM550.618 538.153L550.604 531.946H551.427L559.268 523.182H565.277L555.632 533.92H554.567L550.618 538.153ZM545.93 545V515.909H551.072V545H545.93ZM559.624 545L552.521 535.071L555.987 531.449L565.774 545H559.624ZM570.271 545.312C569.41 545.312 568.671 545.009 568.055 544.403C567.44 543.797 567.137 543.059 567.146 542.188C567.137 541.335 567.44 540.606 568.055 540C568.671 539.394 569.41 539.091 570.271 539.091C571.105 539.091 571.829 539.394 572.445 540C573.07 540.606 573.387 541.335 573.396 542.188C573.387 542.765 573.235 543.291 572.942 543.764C572.658 544.238 572.279 544.616 571.805 544.901C571.341 545.175 570.83 545.312 570.271 545.312ZM577.333 545V515.909H582.475V526.79H582.688C582.953 526.259 583.327 525.696 583.81 525.099C584.293 524.493 584.946 523.977 585.77 523.551C586.594 523.116 587.645 522.898 588.923 522.898C590.609 522.898 592.129 523.329 593.483 524.19C594.847 525.043 595.926 526.307 596.722 527.983C597.527 529.65 597.929 531.695 597.929 534.119C597.929 536.515 597.536 538.551 596.75 540.227C595.964 541.903 594.894 543.182 593.54 544.062C592.186 544.943 590.652 545.384 588.938 545.384C587.688 545.384 586.651 545.175 585.827 544.759C585.003 544.342 584.34 543.84 583.838 543.253C583.346 542.656 582.962 542.093 582.688 541.562H582.389V545H577.333ZM582.375 534.091C582.375 535.502 582.574 536.738 582.972 537.798C583.379 538.859 583.961 539.687 584.719 540.284C585.486 540.871 586.414 541.165 587.503 541.165C588.639 541.165 589.591 540.862 590.358 540.256C591.125 539.64 591.703 538.802 592.091 537.741C592.489 536.671 592.688 535.455 592.688 534.091C592.688 532.737 592.494 531.534 592.105 530.483C591.717 529.432 591.139 528.608 590.372 528.011C589.605 527.415 588.649 527.116 587.503 527.116C586.405 527.116 585.472 527.405 584.705 527.983C583.938 528.561 583.355 529.37 582.958 530.412C582.569 531.454 582.375 532.68 582.375 534.091ZM606.979 545.44C605.596 545.44 604.351 545.194 603.243 544.702C602.145 544.2 601.274 543.461 600.63 542.486C599.995 541.51 599.678 540.308 599.678 538.878C599.678 537.647 599.905 536.629 600.36 535.824C600.814 535.019 601.435 534.375 602.221 533.892C603.007 533.409 603.892 533.045 604.877 532.798C605.871 532.543 606.899 532.358 607.959 532.244C609.238 532.112 610.275 531.993 611.07 531.889C611.865 531.776 612.443 531.605 612.803 531.378C613.172 531.141 613.357 530.777 613.357 530.284V530.199C613.357 529.129 613.04 528.3 612.405 527.713C611.771 527.126 610.857 526.832 609.664 526.832C608.404 526.832 607.405 527.107 606.667 527.656C605.937 528.205 605.445 528.854 605.189 529.602L600.388 528.92C600.767 527.595 601.392 526.487 602.263 525.597C603.134 524.697 604.2 524.025 605.459 523.58C606.719 523.125 608.111 522.898 609.635 522.898C610.686 522.898 611.733 523.021 612.775 523.267C613.816 523.513 614.768 523.92 615.63 524.489C616.491 525.047 617.183 525.81 617.703 526.776C618.234 527.741 618.499 528.949 618.499 530.398V545H613.556V542.003H613.385C613.073 542.609 612.632 543.177 612.064 543.707C611.506 544.228 610.8 544.65 609.948 544.972C609.105 545.284 608.115 545.44 606.979 545.44ZM608.314 541.662C609.346 541.662 610.241 541.458 610.999 541.051C611.757 540.634 612.339 540.085 612.746 539.403C613.163 538.722 613.371 537.978 613.371 537.173V534.602C613.21 534.735 612.935 534.858 612.547 534.972C612.168 535.085 611.742 535.185 611.269 535.27C610.795 535.355 610.327 535.431 609.863 535.497C609.399 535.563 608.996 535.62 608.655 535.668C607.888 535.772 607.202 535.942 606.596 536.179C605.989 536.416 605.511 536.747 605.161 537.173C604.81 537.59 604.635 538.13 604.635 538.793C604.635 539.74 604.981 540.455 605.672 540.938C606.364 541.42 607.244 541.662 608.314 541.662ZM622.069 545V523.182H627.055V526.818H627.282C627.68 525.559 628.362 524.588 629.328 523.906C630.303 523.215 631.416 522.869 632.666 522.869C632.95 522.869 633.267 522.884 633.618 522.912C633.978 522.931 634.276 522.964 634.513 523.011V527.741C634.295 527.666 633.949 527.599 633.476 527.543C633.012 527.476 632.562 527.443 632.126 527.443C631.189 527.443 630.346 527.647 629.598 528.054C628.859 528.452 628.277 529.006 627.851 529.716C627.424 530.426 627.211 531.245 627.211 532.173V545H622.069ZM648.396 523.182V527.159H635.853V523.182H648.396ZM638.949 517.955H644.092V538.438C644.092 539.129 644.196 539.659 644.404 540.028C644.622 540.388 644.906 540.634 645.256 540.767C645.607 540.9 645.995 540.966 646.421 540.966C646.743 540.966 647.037 540.942 647.302 540.895C647.576 540.848 647.785 540.805 647.927 540.767L648.793 544.787C648.519 544.882 648.126 544.986 647.614 545.099C647.112 545.213 646.497 545.279 645.768 545.298C644.48 545.336 643.32 545.142 642.288 544.716C641.255 544.28 640.436 543.608 639.83 542.699C639.234 541.79 638.94 540.653 638.949 539.29V517.955ZM660.379 545.426C658.248 545.426 656.401 544.957 654.839 544.02C653.276 543.082 652.064 541.771 651.202 540.085C650.35 538.4 649.924 536.43 649.924 534.176C649.924 531.922 650.35 529.948 651.202 528.253C652.064 526.558 653.276 525.241 654.839 524.304C656.401 523.366 658.248 522.898 660.379 522.898C662.509 522.898 664.356 523.366 665.918 524.304C667.481 525.241 668.688 526.558 669.541 528.253C670.402 529.948 670.833 531.922 670.833 534.176C670.833 536.43 670.402 538.4 669.541 540.085C668.688 541.771 667.481 543.082 665.918 544.02C664.356 544.957 662.509 545.426 660.379 545.426ZM660.407 541.307C661.562 541.307 662.528 540.99 663.305 540.355C664.081 539.711 664.659 538.849 665.038 537.77C665.426 536.69 665.62 535.488 665.62 534.162C665.62 532.827 665.426 531.619 665.038 530.54C664.659 529.451 664.081 528.584 663.305 527.94C662.528 527.296 661.562 526.974 660.407 526.974C659.223 526.974 658.238 527.296 657.452 527.94C656.676 528.584 656.094 529.451 655.705 530.54C655.327 531.619 655.137 532.827 655.137 534.162C655.137 535.488 655.327 536.69 655.705 537.77C656.094 538.849 656.676 539.711 657.452 540.355C658.238 540.99 659.223 541.307 660.407 541.307ZM690.842 528.949L686.154 529.46C686.022 528.987 685.79 528.542 685.458 528.125C685.136 527.708 684.701 527.372 684.151 527.116C683.602 526.861 682.93 526.733 682.134 526.733C681.064 526.733 680.165 526.965 679.436 527.429C678.716 527.893 678.361 528.494 678.37 529.233C678.361 529.867 678.593 530.384 679.066 530.781C679.549 531.179 680.345 531.506 681.453 531.761L685.174 532.557C687.239 533.002 688.773 533.707 689.776 534.673C690.79 535.639 691.301 536.903 691.311 538.466C691.301 539.839 690.899 541.051 690.103 542.102C689.317 543.144 688.223 543.958 686.822 544.545C685.42 545.133 683.811 545.426 681.992 545.426C679.322 545.426 677.172 544.867 675.544 543.75C673.915 542.623 672.944 541.056 672.632 539.048L677.646 538.565C677.873 539.55 678.356 540.294 679.095 540.795C679.833 541.297 680.794 541.548 681.978 541.548C683.2 541.548 684.18 541.297 684.919 540.795C685.667 540.294 686.041 539.673 686.041 538.935C686.041 538.31 685.799 537.794 685.316 537.386C684.843 536.979 684.104 536.667 683.1 536.449L679.379 535.668C677.286 535.232 675.738 534.498 674.734 533.466C673.73 532.424 673.233 531.108 673.242 529.517C673.233 528.172 673.598 527.008 674.336 526.023C675.084 525.028 676.121 524.261 677.447 523.722C678.782 523.172 680.321 522.898 682.063 522.898C684.62 522.898 686.633 523.442 688.1 524.531C689.578 525.62 690.491 527.093 690.842 528.949ZM693.951 545V523.182H699.093V545H693.951ZM696.536 520.085C695.721 520.085 695.021 519.815 694.434 519.276C693.846 518.726 693.553 518.068 693.553 517.301C693.553 516.525 693.846 515.866 694.434 515.327C695.021 514.777 695.721 514.503 696.536 514.503C697.36 514.503 698.06 514.777 698.638 515.327C699.225 515.866 699.519 516.525 699.519 517.301C699.519 518.068 699.225 518.726 698.638 519.276C698.06 519.815 697.36 520.085 696.536 520.085ZM707.468 538.153L707.454 531.946H708.277L716.118 523.182H722.127L712.482 533.92H711.417L707.468 538.153ZM702.78 545V515.909H707.922V545H702.78ZM716.474 545L709.371 535.071L712.837 531.449L722.624 545H716.474ZM727.121 545.312C726.26 545.312 725.521 545.009 724.905 544.403C724.29 543.797 723.987 543.059 723.996 542.188C723.987 541.335 724.29 540.606 724.905 540C725.521 539.394 726.26 539.091 727.121 539.091C727.955 539.091 728.679 539.394 729.295 540C729.92 540.606 730.237 541.335 730.246 542.188C730.237 542.765 730.085 543.291 729.792 543.764C729.508 544.238 729.129 544.616 728.655 544.901C728.191 545.175 727.68 545.312 727.121 545.312ZM745.006 523.182V527.159H732.109V523.182H745.006ZM735.333 545V521.122C735.333 519.654 735.636 518.433 736.242 517.457C736.858 516.482 737.682 515.753 738.714 515.27C739.746 514.787 740.892 514.545 742.151 514.545C743.041 514.545 743.832 514.616 744.523 514.759C745.215 514.901 745.726 515.028 746.058 515.142L745.035 519.119C744.817 519.053 744.542 518.987 744.211 518.92C743.88 518.845 743.51 518.807 743.103 518.807C742.147 518.807 741.47 519.039 741.072 519.503C740.684 519.957 740.489 520.611 740.489 521.463V545H735.333ZM747.433 545V523.182H752.419V526.818H752.647C753.044 525.559 753.726 524.588 754.692 523.906C755.667 523.215 756.78 522.869 758.03 522.869C758.314 522.869 758.631 522.884 758.982 522.912C759.342 522.931 759.64 522.964 759.877 523.011V527.741C759.659 527.666 759.313 527.599 758.84 527.543C758.376 527.476 757.926 527.443 757.49 527.443C756.553 527.443 755.71 527.647 754.962 528.054C754.223 528.452 753.641 529.006 753.215 529.716C752.789 530.426 752.576 531.245 752.576 532.173V545H747.433Z" fill="url(#paint5_linear_3162_101)"/>
</g>
<defs>
<radialGradient id="paint0_radial_3162_101" cx="0" cy="0" r="1" gradientTransform="matrix(-834.228 890.318 -1656.3 -1475.05 2094.23 567.682)" gradientUnits="userSpaceOnUse">
<stop stop-opacity="0"/>
<stop offset="0.487941" stop-opacity="0"/>
<stop offset="0.713185" stop-color="#6A00FF"/>
<stop offset="1" stop-color="#FFE9C5"/>
</radialGradient>
<radialGradient id="paint1_radial_3162_101" cx="0" cy="0" r="1" gradientTransform="matrix(-834.228 890.318 -1656.3 -1475.05 894.228 -62.318)" gradientUnits="userSpaceOnUse">
<stop stop-opacity="0"/>
<stop offset="0.487941" stop-opacity="0"/>
<stop offset="0.713185" stop-color="#6A00FF"/>
<stop offset="1" stop-color="#FFE9C5"/>
</radialGradient>
<linearGradient id="paint2_linear_3162_101" x1="711" y1="270" x2="643.766" y2="497.434" gradientUnits="userSpaceOnUse">
<stop stop-color="white"/>
<stop offset="1" stop-color="white" stop-opacity="0.9"/>
</linearGradient>
<linearGradient id="paint3_linear_3162_101" x1="435.481" y1="78.7906" x2="641.055" y2="232.879" gradientUnits="userSpaceOnUse">
<stop stop-color="#DAB967"/>
<stop offset="0.62" stop-color="#BC874D"/>
<stop offset="1" stop-color="#AE6E41"/>
</linearGradient>
<linearGradient id="paint4_linear_3162_101" x1="612.808" y1="111.718" x2="588.147" y2="166.951" gradientUnits="userSpaceOnUse">
<stop stop-color="white"/>
<stop offset="1" stop-color="white" stop-opacity="0.9"/>
</linearGradient>
<linearGradient id="paint5_linear_3162_101" x1="646.6" y1="520.179" x2="641.588" y2="563.765" gradientUnits="userSpaceOnUse">
<stop stop-color="white"/>
<stop offset="1" stop-color="white" stop-opacity="0.9"/>
</linearGradient>
<clipPath id="clip0_3162_101">
<rect width="1200" height="630" fill="white"/>
</clipPath>
<clipPath id="clip1_3162_101">
<rect width="1279" height="630" fill="white" transform="translate(-40)"/>
</clipPath>
<clipPath id="clip2_3162_101">
<rect width="60" height="72.9009" fill="white" transform="translate(463 90)"/>
</clipPath>
</defs>
</svg>
